<mxfile host="app.diagrams.net" agent="Mozilla/5.0 (Windows NT 10.0; Win64; x64) AppleWebKit/537.36 (KHTML, like Gecko) Chrome/133.0.0.0 Safari/537.36 Edg/133.0.0.0" version="26.0.16">
  <diagram name="Page-1" id="7NI0cN8WIBlKeW79pLxh">
    <mxGraphModel dx="1688" dy="2092" grid="1" gridSize="10" guides="1" tooltips="1" connect="1" arrows="1" fold="1" page="1" pageScale="1" pageWidth="827" pageHeight="1169" math="0" shadow="0">
      <root>
        <mxCell id="0" />
        <mxCell id="1" parent="0" />
        <mxCell id="XKCDAz_21dTOhUU2t3bO-3" value="" style="edgeStyle=orthogonalEdgeStyle;rounded=0;orthogonalLoop=1;jettySize=auto;html=1;" parent="1" source="XKCDAz_21dTOhUU2t3bO-1" target="XKCDAz_21dTOhUU2t3bO-2" edge="1">
          <mxGeometry relative="1" as="geometry" />
        </mxCell>
        <mxCell id="XKCDAz_21dTOhUU2t3bO-1" value="&lt;div style=&quot;color: #383a42;background-color: #f5f5f5;font-family: Consolas, &#39;Courier New&#39;, monospace;font-weight: normal;font-size: 14px;line-height: 19px;white-space: pre;&quot;&gt;&lt;div&gt;&lt;span style=&quot;color: #4078f2;&quot;&gt;rts_av_isp_init&lt;/span&gt;&lt;/div&gt;&lt;/div&gt;" style="text;whiteSpace=wrap;html=1;" parent="1" vertex="1">
          <mxGeometry x="190" y="40" width="130" height="30" as="geometry" />
        </mxCell>
        <mxCell id="XKCDAz_21dTOhUU2t3bO-6" style="edgeStyle=orthogonalEdgeStyle;rounded=0;orthogonalLoop=1;jettySize=auto;html=1;exitX=1;exitY=0.5;exitDx=0;exitDy=0;entryX=0;entryY=0.5;entryDx=0;entryDy=0;" parent="1" source="XKCDAz_21dTOhUU2t3bO-2" target="XKCDAz_21dTOhUU2t3bO-4" edge="1">
          <mxGeometry relative="1" as="geometry" />
        </mxCell>
        <mxCell id="XKCDAz_21dTOhUU2t3bO-7" style="edgeStyle=orthogonalEdgeStyle;rounded=0;orthogonalLoop=1;jettySize=auto;html=1;exitX=1;exitY=0.5;exitDx=0;exitDy=0;entryX=0;entryY=0.5;entryDx=0;entryDy=0;" parent="1" source="XKCDAz_21dTOhUU2t3bO-2" target="XKCDAz_21dTOhUU2t3bO-5" edge="1">
          <mxGeometry relative="1" as="geometry" />
        </mxCell>
        <mxCell id="zwHW3op6i-iEvnCv9LnT-24" style="edgeStyle=orthogonalEdgeStyle;rounded=0;orthogonalLoop=1;jettySize=auto;html=1;exitX=1;exitY=0.5;exitDx=0;exitDy=0;entryX=0;entryY=0.5;entryDx=0;entryDy=0;" parent="1" source="XKCDAz_21dTOhUU2t3bO-2" target="zwHW3op6i-iEvnCv9LnT-23" edge="1">
          <mxGeometry relative="1" as="geometry" />
        </mxCell>
        <mxCell id="zwHW3op6i-iEvnCv9LnT-26" style="edgeStyle=orthogonalEdgeStyle;rounded=0;orthogonalLoop=1;jettySize=auto;html=1;exitX=1;exitY=0.5;exitDx=0;exitDy=0;entryX=0;entryY=0.5;entryDx=0;entryDy=0;" parent="1" source="XKCDAz_21dTOhUU2t3bO-2" target="zwHW3op6i-iEvnCv9LnT-25" edge="1">
          <mxGeometry relative="1" as="geometry" />
        </mxCell>
        <mxCell id="zwHW3op6i-iEvnCv9LnT-28" style="edgeStyle=orthogonalEdgeStyle;rounded=0;orthogonalLoop=1;jettySize=auto;html=1;exitX=1;exitY=0.5;exitDx=0;exitDy=0;entryX=0;entryY=0.5;entryDx=0;entryDy=0;" parent="1" source="XKCDAz_21dTOhUU2t3bO-2" target="zwHW3op6i-iEvnCv9LnT-27" edge="1">
          <mxGeometry relative="1" as="geometry" />
        </mxCell>
        <mxCell id="zwHW3op6i-iEvnCv9LnT-30" style="edgeStyle=orthogonalEdgeStyle;rounded=0;orthogonalLoop=1;jettySize=auto;html=1;exitX=1;exitY=0.5;exitDx=0;exitDy=0;entryX=0;entryY=0.5;entryDx=0;entryDy=0;" parent="1" source="XKCDAz_21dTOhUU2t3bO-2" target="zwHW3op6i-iEvnCv9LnT-29" edge="1">
          <mxGeometry relative="1" as="geometry" />
        </mxCell>
        <mxCell id="XKCDAz_21dTOhUU2t3bO-2" value="&lt;div style=&quot;color: #383a42;background-color: #f5f5f5;font-family: Consolas, &#39;Courier New&#39;, monospace;font-weight: normal;font-size: 14px;line-height: 19px;white-space: pre;&quot;&gt;&lt;div&gt;&lt;span style=&quot;color: #4078f2;&quot;&gt;isp_top_init&lt;/span&gt;&lt;/div&gt;&lt;/div&gt;" style="text;whiteSpace=wrap;html=1;" parent="1" vertex="1">
          <mxGeometry x="340" y="40" width="100" height="30" as="geometry" />
        </mxCell>
        <mxCell id="XKCDAz_21dTOhUU2t3bO-9" value="" style="edgeStyle=orthogonalEdgeStyle;rounded=0;orthogonalLoop=1;jettySize=auto;html=1;" parent="1" source="XKCDAz_21dTOhUU2t3bO-4" target="XKCDAz_21dTOhUU2t3bO-8" edge="1">
          <mxGeometry relative="1" as="geometry" />
        </mxCell>
        <mxCell id="juUuwl-fKoCdpQNm10XT-2" style="edgeStyle=orthogonalEdgeStyle;rounded=0;orthogonalLoop=1;jettySize=auto;html=1;exitX=1;exitY=0.5;exitDx=0;exitDy=0;entryX=0;entryY=0.5;entryDx=0;entryDy=0;" parent="1" source="XKCDAz_21dTOhUU2t3bO-4" target="juUuwl-fKoCdpQNm10XT-1" edge="1">
          <mxGeometry relative="1" as="geometry" />
        </mxCell>
        <mxCell id="XKCDAz_21dTOhUU2t3bO-4" value="&lt;div style=&quot;color: #383a42;background-color: #f5f5f5;font-family: Consolas, &#39;Courier New&#39;, monospace;font-weight: normal;font-size: 14px;line-height: 19px;white-space: pre;&quot;&gt;&lt;div&gt;&lt;span style=&quot;color: #4078f2;&quot;&gt;isp_driver_init&lt;/span&gt;&lt;/div&gt;&lt;/div&gt;" style="text;whiteSpace=wrap;html=1;" parent="1" vertex="1">
          <mxGeometry x="480" y="-120" width="130" height="30" as="geometry" />
        </mxCell>
        <mxCell id="zwHW3op6i-iEvnCv9LnT-2" style="edgeStyle=orthogonalEdgeStyle;rounded=0;orthogonalLoop=1;jettySize=auto;html=1;exitX=1;exitY=0.5;exitDx=0;exitDy=0;entryX=0;entryY=0.5;entryDx=0;entryDy=0;" parent="1" source="XKCDAz_21dTOhUU2t3bO-5" target="zwHW3op6i-iEvnCv9LnT-1" edge="1">
          <mxGeometry relative="1" as="geometry" />
        </mxCell>
        <mxCell id="zwHW3op6i-iEvnCv9LnT-4" style="edgeStyle=orthogonalEdgeStyle;rounded=0;orthogonalLoop=1;jettySize=auto;html=1;exitX=1;exitY=0.5;exitDx=0;exitDy=0;entryX=0;entryY=0.5;entryDx=0;entryDy=0;" parent="1" source="XKCDAz_21dTOhUU2t3bO-5" target="zwHW3op6i-iEvnCv9LnT-3" edge="1">
          <mxGeometry relative="1" as="geometry" />
        </mxCell>
        <mxCell id="zwHW3op6i-iEvnCv9LnT-6" style="edgeStyle=orthogonalEdgeStyle;rounded=0;orthogonalLoop=1;jettySize=auto;html=1;exitX=1;exitY=0.5;exitDx=0;exitDy=0;entryX=0;entryY=0.5;entryDx=0;entryDy=0;" parent="1" source="XKCDAz_21dTOhUU2t3bO-5" target="zwHW3op6i-iEvnCv9LnT-5" edge="1">
          <mxGeometry relative="1" as="geometry" />
        </mxCell>
        <mxCell id="XKCDAz_21dTOhUU2t3bO-5" value="&lt;div style=&quot;color: #383a42;background-color: #f5f5f5;font-family: Consolas, &#39;Courier New&#39;, monospace;font-weight: normal;font-size: 14px;line-height: 19px;white-space: pre;&quot;&gt;&lt;div&gt;&lt;span style=&quot;color: #4078f2;&quot;&gt;isp_top_core_init&lt;/span&gt;&lt;/div&gt;&lt;/div&gt;" style="text;whiteSpace=wrap;html=1;" parent="1" vertex="1">
          <mxGeometry x="480" y="70" width="140" height="30" as="geometry" />
        </mxCell>
        <mxCell id="XKCDAz_21dTOhUU2t3bO-8" value="&lt;div style=&quot;color: #383a42;background-color: #f5f5f5;font-family: Consolas, &#39;Courier New&#39;, monospace;font-weight: normal;font-size: 14px;line-height: 19px;white-space: pre;&quot;&gt;&lt;div&gt;&lt;span style=&quot;color: #0184bc;&quot;&gt;open&lt;/span&gt;&lt;span style=&quot;color: #383a42;&quot;&gt;(&lt;/span&gt;&lt;span style=&quot;color: #50a14f;&quot;&gt;&quot;/dev/rtsisp&quot;&lt;/span&gt;&lt;span style=&quot;color: #383a42;&quot;&gt;, &lt;/span&gt;&lt;span style=&quot;color: #aca600;&quot;&gt;O_RDWR&lt;/span&gt;&lt;span style=&quot;color: #383a42;&quot;&gt; &lt;/span&gt;&lt;span style=&quot;color: #383a42;&quot;&gt;|&lt;/span&gt;&lt;span style=&quot;color: #383a42;&quot;&gt; &lt;/span&gt;&lt;span style=&quot;color: #aca600;&quot;&gt;O_NONBLOCK&lt;/span&gt;&lt;span style=&quot;color: #383a42;&quot;&gt;);&lt;/span&gt;&lt;/div&gt;&lt;/div&gt;" style="text;whiteSpace=wrap;html=1;" parent="1" vertex="1">
          <mxGeometry x="655" y="-120" width="330" height="30" as="geometry" />
        </mxCell>
        <mxCell id="ht368XArrU7g4tb2RllO-55" style="edgeStyle=orthogonalEdgeStyle;rounded=0;orthogonalLoop=1;jettySize=auto;html=1;exitX=1;exitY=0.5;exitDx=0;exitDy=0;entryX=0;entryY=0.5;entryDx=0;entryDy=0;" parent="1" source="zwHW3op6i-iEvnCv9LnT-1" target="ht368XArrU7g4tb2RllO-53" edge="1">
          <mxGeometry relative="1" as="geometry" />
        </mxCell>
        <mxCell id="ht368XArrU7g4tb2RllO-56" style="edgeStyle=orthogonalEdgeStyle;rounded=0;orthogonalLoop=1;jettySize=auto;html=1;exitX=1;exitY=0.5;exitDx=0;exitDy=0;entryX=0;entryY=0.5;entryDx=0;entryDy=0;" parent="1" source="zwHW3op6i-iEvnCv9LnT-1" target="ht368XArrU7g4tb2RllO-54" edge="1">
          <mxGeometry relative="1" as="geometry" />
        </mxCell>
        <mxCell id="zwHW3op6i-iEvnCv9LnT-1" value="&lt;div style=&quot;color: #383a42;background-color: #f5f5f5;font-family: Consolas, &#39;Courier New&#39;, monospace;font-weight: normal;font-size: 14px;line-height: 19px;white-space: pre;&quot;&gt;&lt;div&gt;&lt;span style=&quot;color: #4078f2;&quot;&gt;isp_core_create&lt;/span&gt;&lt;/div&gt;&lt;/div&gt;" style="text;whiteSpace=wrap;html=1;" parent="1" vertex="1">
          <mxGeometry x="660" y="20" width="120" height="30" as="geometry" />
        </mxCell>
        <mxCell id="zwHW3op6i-iEvnCv9LnT-12" value="" style="edgeStyle=orthogonalEdgeStyle;rounded=0;orthogonalLoop=1;jettySize=auto;html=1;" parent="1" source="zwHW3op6i-iEvnCv9LnT-3" target="zwHW3op6i-iEvnCv9LnT-11" edge="1">
          <mxGeometry relative="1" as="geometry" />
        </mxCell>
        <mxCell id="zwHW3op6i-iEvnCv9LnT-3" value="&lt;div style=&quot;color: #383a42;background-color: #f5f5f5;font-family: Consolas, &#39;Courier New&#39;, monospace;font-weight: normal;font-size: 14px;line-height: 19px;white-space: pre;&quot;&gt;&lt;div&gt;&lt;span style=&quot;color: #4078f2;&quot;&gt;isp_register_all_modules&lt;/span&gt;&lt;/div&gt;&lt;/div&gt;" style="text;whiteSpace=wrap;html=1;" parent="1" vertex="1">
          <mxGeometry x="660" y="100" width="190" height="30" as="geometry" />
        </mxCell>
        <mxCell id="zwHW3op6i-iEvnCv9LnT-20" value="" style="edgeStyle=orthogonalEdgeStyle;rounded=0;orthogonalLoop=1;jettySize=auto;html=1;" parent="1" source="zwHW3op6i-iEvnCv9LnT-5" target="zwHW3op6i-iEvnCv9LnT-19" edge="1">
          <mxGeometry relative="1" as="geometry" />
        </mxCell>
        <mxCell id="zwHW3op6i-iEvnCv9LnT-22" style="edgeStyle=orthogonalEdgeStyle;rounded=0;orthogonalLoop=1;jettySize=auto;html=1;exitX=1;exitY=0.5;exitDx=0;exitDy=0;entryX=0;entryY=0.5;entryDx=0;entryDy=0;" parent="1" source="zwHW3op6i-iEvnCv9LnT-5" target="zwHW3op6i-iEvnCv9LnT-21" edge="1">
          <mxGeometry relative="1" as="geometry" />
        </mxCell>
        <mxCell id="zwHW3op6i-iEvnCv9LnT-5" value="&lt;div style=&quot;color: #383a42;background-color: #f5f5f5;font-family: Consolas, &#39;Courier New&#39;, monospace;font-weight: normal;font-size: 14px;line-height: 19px;white-space: pre;&quot;&gt;&lt;div&gt;&lt;span style=&quot;color: #4078f2;&quot;&gt;isp_core_init&lt;/span&gt;&lt;/div&gt;&lt;/div&gt;" style="text;whiteSpace=wrap;html=1;" parent="1" vertex="1">
          <mxGeometry x="660" y="140" width="110" height="30" as="geometry" />
        </mxCell>
        <mxCell id="zwHW3op6i-iEvnCv9LnT-7" value="&lt;font style=&quot;color: rgb(179, 179, 179);&quot;&gt;isp_top.c&lt;/font&gt;" style="text;html=1;align=center;verticalAlign=middle;whiteSpace=wrap;rounded=0;" parent="1" vertex="1">
          <mxGeometry x="490" y="50" width="60" height="30" as="geometry" />
        </mxCell>
        <mxCell id="zwHW3op6i-iEvnCv9LnT-8" value="&lt;font style=&quot;color: rgb(179, 179, 179);&quot;&gt;isp_driver.c&lt;/font&gt;" style="text;html=1;align=center;verticalAlign=middle;whiteSpace=wrap;rounded=0;" parent="1" vertex="1">
          <mxGeometry x="480" y="-150" width="60" height="30" as="geometry" />
        </mxCell>
        <mxCell id="zwHW3op6i-iEvnCv9LnT-10" value="&lt;font color=&quot;#b3b3b3&quot;&gt;gen_modules_file.cmake&lt;/font&gt;" style="text;html=1;align=center;verticalAlign=middle;whiteSpace=wrap;rounded=0;" parent="1" vertex="1">
          <mxGeometry x="650" y="80" width="160" height="30" as="geometry" />
        </mxCell>
        <mxCell id="zwHW3op6i-iEvnCv9LnT-15" value="" style="edgeStyle=orthogonalEdgeStyle;rounded=0;orthogonalLoop=1;jettySize=auto;html=1;" parent="1" source="zwHW3op6i-iEvnCv9LnT-11" target="zwHW3op6i-iEvnCv9LnT-14" edge="1">
          <mxGeometry relative="1" as="geometry" />
        </mxCell>
        <mxCell id="zwHW3op6i-iEvnCv9LnT-11" value="&lt;div style=&quot;color: rgb(56, 58, 66); background-color: rgb(245, 245, 245); font-family: Consolas, &amp;quot;Courier New&amp;quot;, monospace; font-weight: normal; font-size: 14px; line-height: 19px; white-space: pre;&quot;&gt;&lt;div&gt;&lt;span style=&quot;color: rgb(64, 120, 242);&quot;&gt;isp_register_mod_xxx&lt;/span&gt;&lt;/div&gt;&lt;/div&gt;" style="text;whiteSpace=wrap;html=1;" parent="1" vertex="1">
          <mxGeometry x="870" y="100" width="160" height="30" as="geometry" />
        </mxCell>
        <mxCell id="zwHW3op6i-iEvnCv9LnT-13" value="&lt;font color=&quot;#b3b3b3&quot;&gt;isp_mod_xxx.c&lt;/font&gt;" style="text;html=1;align=center;verticalAlign=middle;whiteSpace=wrap;rounded=0;" parent="1" vertex="1">
          <mxGeometry x="870" y="80" width="100" height="30" as="geometry" />
        </mxCell>
        <mxCell id="ht368XArrU7g4tb2RllO-47" value="" style="edgeStyle=orthogonalEdgeStyle;rounded=0;orthogonalLoop=1;jettySize=auto;html=1;" parent="1" source="zwHW3op6i-iEvnCv9LnT-14" target="ht368XArrU7g4tb2RllO-46" edge="1">
          <mxGeometry relative="1" as="geometry" />
        </mxCell>
        <mxCell id="zwHW3op6i-iEvnCv9LnT-14" value="&lt;div style=&quot;color: #383a42;background-color: #f5f5f5;font-family: Consolas, &#39;Courier New&#39;, monospace;font-weight: normal;font-size: 14px;line-height: 19px;white-space: pre;&quot;&gt;&lt;div&gt;&lt;span style=&quot;color: #4078f2;&quot;&gt;isp_mod_register&lt;/span&gt;&lt;/div&gt;&lt;/div&gt;" style="text;whiteSpace=wrap;html=1;" parent="1" vertex="1">
          <mxGeometry x="1060" y="100" width="130" height="30" as="geometry" />
        </mxCell>
        <mxCell id="zwHW3op6i-iEvnCv9LnT-16" value="&lt;div style=&quot;color: rgb(56, 58, 66); background-color: rgb(245, 245, 245); font-family: Consolas, &amp;quot;Courier New&amp;quot;, monospace; font-weight: normal; line-height: 19px; white-space: pre;&quot;&gt;&lt;div style=&quot;&quot;&gt;&lt;font style=&quot;font-size: 11px;&quot;&gt;&lt;span style=&quot;color: rgb(166, 38, 164);&quot;&gt;struct&lt;/span&gt;&lt;span style=&quot;color: rgb(56, 58, 66);&quot;&gt; &lt;/span&gt;&lt;span style=&quot;color: rgb(193, 132, 1);&quot;&gt;isp_top&lt;/span&gt;&lt;span style=&quot;color: rgb(56, 58, 66);&quot;&gt; {&lt;/span&gt;&lt;/font&gt;&lt;/div&gt;&lt;div style=&quot;&quot;&gt;&lt;font style=&quot;font-size: 11px;&quot;&gt;&lt;span style=&quot;color: rgb(56, 58, 66);&quot;&gt;&amp;nbsp; &amp;nbsp; &amp;nbsp; &amp;nbsp; &lt;/span&gt;&lt;span style=&quot;color: rgb(193, 132, 1);&quot;&gt;isp_poll_t&lt;/span&gt;&lt;span style=&quot;color: rgb(56, 58, 66);&quot;&gt; &lt;/span&gt;&lt;span style=&quot;color: rgb(228, 86, 73);&quot;&gt;p&lt;/span&gt;&lt;span style=&quot;color: rgb(56, 58, 66);&quot;&gt;;&lt;/span&gt;&lt;/font&gt;&lt;/div&gt;&lt;div style=&quot;&quot;&gt;&lt;font style=&quot;font-size: 11px;&quot;&gt;&lt;span style=&quot;color: rgb(56, 58, 66);&quot;&gt;&amp;nbsp; &amp;nbsp; &amp;nbsp; &amp;nbsp; &lt;/span&gt;&lt;span style=&quot;color: rgb(193, 132, 1);&quot;&gt;isp_stream_t&lt;/span&gt;&lt;span style=&quot;color: rgb(56, 58, 66);&quot;&gt; &lt;/span&gt;&lt;span style=&quot;color: rgb(166, 38, 164);&quot;&gt;*&lt;/span&gt;&lt;span style=&quot;color: rgb(228, 86, 73);&quot;&gt;stream_uds&lt;/span&gt;&lt;span style=&quot;color: rgb(56, 58, 66);&quot;&gt;;&lt;/span&gt;&lt;/font&gt;&lt;/div&gt;&lt;font style=&quot;font-size: 11px;&quot;&gt;&lt;br&gt;&lt;/font&gt;&lt;div style=&quot;&quot;&gt;&lt;font style=&quot;font-size: 11px;&quot;&gt;&lt;span style=&quot;color: rgb(56, 58, 66);&quot;&gt;&amp;nbsp; &amp;nbsp; &amp;nbsp; &amp;nbsp; &lt;/span&gt;&lt;span style=&quot;color: rgb(193, 132, 1);&quot;&gt;isp_core_t&lt;/span&gt;&lt;span style=&quot;color: rgb(56, 58, 66);&quot;&gt; &lt;/span&gt;&lt;span style=&quot;color: rgb(228, 86, 73);&quot;&gt;core&lt;/span&gt;&lt;span style=&quot;color: rgb(56, 58, 66);&quot;&gt;[&lt;/span&gt;&lt;span style=&quot;color: rgb(228, 86, 73);&quot;&gt;_ISP_ID_NUM&lt;/span&gt;&lt;span style=&quot;color: rgb(56, 58, 66);&quot;&gt;];&lt;/span&gt;&lt;/font&gt;&lt;/div&gt;&lt;font style=&quot;font-size: 11px;&quot;&gt;&lt;br&gt;&lt;/font&gt;&lt;div style=&quot;&quot;&gt;&lt;font style=&quot;font-size: 11px;&quot;&gt;&lt;span style=&quot;color: rgb(56, 58, 66);&quot;&gt;&amp;nbsp; &amp;nbsp; &amp;nbsp; &amp;nbsp; &lt;/span&gt;&lt;span style=&quot;color: rgb(166, 38, 164);&quot;&gt;struct&lt;/span&gt;&lt;span style=&quot;color: rgb(56, 58, 66);&quot;&gt; &lt;/span&gt;&lt;span style=&quot;color: rgb(193, 132, 1);&quot;&gt;isp_algo_manager&lt;/span&gt;&lt;span style=&quot;color: rgb(56, 58, 66);&quot;&gt; &lt;/span&gt;&lt;span style=&quot;color: rgb(228, 86, 73);&quot;&gt;algom&lt;/span&gt;&lt;span style=&quot;color: rgb(56, 58, 66);&quot;&gt;;&lt;/span&gt;&lt;/font&gt;&lt;/div&gt;&lt;div style=&quot;&quot;&gt;&lt;font style=&quot;font-size: 11px;&quot;&gt;&lt;span style=&quot;color: rgb(56, 58, 66);&quot;&gt;&amp;nbsp; &amp;nbsp; &amp;nbsp; &amp;nbsp; &lt;/span&gt;&lt;span style=&quot;color: rgb(166, 38, 164);&quot;&gt;struct&lt;/span&gt;&lt;span style=&quot;color: rgb(56, 58, 66);&quot;&gt; &lt;/span&gt;&lt;span style=&quot;color: rgb(193, 132, 1);&quot;&gt;isp_sensor_manager&lt;/span&gt;&lt;span style=&quot;color: rgb(56, 58, 66);&quot;&gt; &lt;/span&gt;&lt;span style=&quot;color: rgb(228, 86, 73);&quot;&gt;snrm&lt;/span&gt;&lt;span style=&quot;color: rgb(56, 58, 66);&quot;&gt;;&lt;/span&gt;&lt;/font&gt;&lt;/div&gt;&lt;font style=&quot;font-size: 11px;&quot;&gt;&lt;br&gt;&lt;/font&gt;&lt;div style=&quot;&quot;&gt;&lt;font style=&quot;font-size: 11px;&quot;&gt;&lt;span style=&quot;color: rgb(56, 58, 66);&quot;&gt;&amp;nbsp; &amp;nbsp; &amp;nbsp; &amp;nbsp; &lt;/span&gt;&lt;span style=&quot;color: rgb(166, 38, 164);&quot;&gt;enum&lt;/span&gt;&lt;span style=&quot;color: rgb(56, 58, 66);&quot;&gt; &lt;/span&gt;&lt;span style=&quot;color: rgb(193, 132, 1);&quot;&gt;rts_isp_status&lt;/span&gt;&lt;span style=&quot;color: rgb(56, 58, 66);&quot;&gt; &lt;/span&gt;&lt;span style=&quot;color: rgb(228, 86, 73);&quot;&gt;status&lt;/span&gt;&lt;span style=&quot;color: rgb(56, 58, 66);&quot;&gt;;&lt;/span&gt;&lt;/font&gt;&lt;/div&gt;&lt;font style=&quot;font-size: 11px;&quot;&gt;&lt;br&gt;&lt;/font&gt;&lt;div style=&quot;&quot;&gt;&lt;font style=&quot;font-size: 11px;&quot;&gt;&lt;span style=&quot;color: rgb(56, 58, 66);&quot;&gt;&amp;nbsp; &amp;nbsp; &amp;nbsp; &amp;nbsp; &lt;/span&gt;&lt;span style=&quot;color: rgb(166, 38, 164);&quot;&gt;int&lt;/span&gt;&lt;span style=&quot;color: rgb(56, 58, 66);&quot;&gt; &lt;/span&gt;&lt;span style=&quot;color: rgb(228, 86, 73);&quot;&gt;pid_fd&lt;/span&gt;&lt;span style=&quot;color: rgb(56, 58, 66);&quot;&gt;;&lt;/span&gt;&lt;/font&gt;&lt;/div&gt;&lt;div style=&quot;&quot;&gt;&lt;span style=&quot;color: rgb(56, 58, 66);&quot;&gt;&lt;font style=&quot;font-size: 11px;&quot;&gt;};&lt;/font&gt;&lt;/span&gt;&lt;/div&gt;&lt;/div&gt;" style="text;whiteSpace=wrap;html=1;" parent="1" vertex="1">
          <mxGeometry x="290" y="-440" width="250" height="260" as="geometry" />
        </mxCell>
        <mxCell id="zwHW3op6i-iEvnCv9LnT-17" value="&lt;div style=&quot;color: rgb(56, 58, 66); background-color: rgb(245, 245, 245); font-family: Consolas, &amp;quot;Courier New&amp;quot;, monospace; font-weight: normal; line-height: 19px; white-space: pre;&quot;&gt;&lt;div style=&quot;&quot;&gt;&lt;font style=&quot;font-size: 11px;&quot;&gt;&lt;span style=&quot;color: rgb(166, 38, 164);&quot;&gt;struct&lt;/span&gt;&lt;span style=&quot;color: rgb(56, 58, 66);&quot;&gt; &lt;/span&gt;&lt;span style=&quot;color: rgb(193, 132, 1);&quot;&gt;isp_core&lt;/span&gt;&lt;span style=&quot;color: rgb(56, 58, 66);&quot;&gt; {&lt;/span&gt;&lt;/font&gt;&lt;/div&gt;&lt;div style=&quot;&quot;&gt;&lt;font style=&quot;font-size: 11px;&quot;&gt;&lt;span style=&quot;color: rgb(56, 58, 66);&quot;&gt;&amp;nbsp; &amp;nbsp; &amp;nbsp; &amp;nbsp; &lt;/span&gt;&lt;span style=&quot;color: rgb(166, 38, 164);&quot;&gt;struct&lt;/span&gt;&lt;span style=&quot;color: rgb(56, 58, 66);&quot;&gt; &lt;/span&gt;&lt;span style=&quot;color: rgb(193, 132, 1);&quot;&gt;isp_mod_hash_table&lt;/span&gt;&lt;span style=&quot;color: rgb(56, 58, 66);&quot;&gt; &lt;/span&gt;&lt;span style=&quot;color: rgb(228, 86, 73);&quot;&gt;hash&lt;/span&gt;&lt;span style=&quot;color: rgb(56, 58, 66);&quot;&gt;;&lt;/span&gt;&lt;/font&gt;&lt;/div&gt;&lt;div style=&quot;&quot;&gt;&lt;font style=&quot;font-size: 11px;&quot;&gt;&lt;span style=&quot;color: rgb(56, 58, 66);&quot;&gt;&amp;nbsp; &amp;nbsp; &amp;nbsp; &amp;nbsp; &lt;/span&gt;&lt;span style=&quot;color: rgb(166, 38, 164);&quot;&gt;struct&lt;/span&gt;&lt;span style=&quot;color: rgb(56, 58, 66);&quot;&gt; &lt;/span&gt;&lt;span style=&quot;color: rgb(193, 132, 1);&quot;&gt;isp_notify&lt;/span&gt;&lt;span style=&quot;color: rgb(56, 58, 66);&quot;&gt; &lt;/span&gt;&lt;span style=&quot;color: rgb(228, 86, 73);&quot;&gt;notify&lt;/span&gt;&lt;span style=&quot;color: rgb(56, 58, 66);&quot;&gt;;&lt;/span&gt;&lt;/font&gt;&lt;/div&gt;&lt;div style=&quot;&quot;&gt;&lt;font style=&quot;font-size: 11px;&quot;&gt;&lt;span style=&quot;color: rgb(56, 58, 66);&quot;&gt;&amp;nbsp; &amp;nbsp; &amp;nbsp; &amp;nbsp; &lt;/span&gt;&lt;span style=&quot;color: rgb(166, 38, 164);&quot;&gt;struct&lt;/span&gt;&lt;span style=&quot;color: rgb(56, 58, 66);&quot;&gt; &lt;/span&gt;&lt;span style=&quot;color: rgb(193, 132, 1);&quot;&gt;v4l2_ctrl_handler&lt;/span&gt;&lt;span style=&quot;color: rgb(56, 58, 66);&quot;&gt; &lt;/span&gt;&lt;span style=&quot;color: rgb(228, 86, 73);&quot;&gt;ctrl_handler&lt;/span&gt;&lt;span style=&quot;color: rgb(56, 58, 66);&quot;&gt;;&lt;/span&gt;&lt;/font&gt;&lt;/div&gt;&lt;div style=&quot;&quot;&gt;&lt;font style=&quot;font-size: 11px;&quot;&gt;&lt;span style=&quot;color: rgb(56, 58, 66);&quot;&gt;&amp;nbsp; &amp;nbsp; &amp;nbsp; &amp;nbsp; &lt;/span&gt;&lt;span style=&quot;color: rgb(166, 38, 164);&quot;&gt;struct&lt;/span&gt;&lt;span style=&quot;color: rgb(56, 58, 66);&quot;&gt; &lt;/span&gt;&lt;span style=&quot;color: rgb(193, 132, 1);&quot;&gt;isp_statis&lt;/span&gt;&lt;span style=&quot;color: rgb(56, 58, 66);&quot;&gt; &lt;/span&gt;&lt;span style=&quot;color: rgb(228, 86, 73);&quot;&gt;statis&lt;/span&gt;&lt;span style=&quot;color: rgb(56, 58, 66);&quot;&gt;;&lt;/span&gt;&lt;/font&gt;&lt;/div&gt;&lt;div style=&quot;&quot;&gt;&lt;font style=&quot;font-size: 11px;&quot;&gt;&lt;span style=&quot;color: rgb(56, 58, 66);&quot;&gt;&amp;nbsp; &amp;nbsp; &amp;nbsp; &amp;nbsp; &lt;/span&gt;&lt;span style=&quot;color: rgb(166, 38, 164);&quot;&gt;struct&lt;/span&gt;&lt;span style=&quot;color: rgb(56, 58, 66);&quot;&gt; &lt;/span&gt;&lt;span style=&quot;color: rgb(193, 132, 1);&quot;&gt;isp_iq&lt;/span&gt;&lt;span style=&quot;color: rgb(56, 58, 66);&quot;&gt; &lt;/span&gt;&lt;span style=&quot;color: rgb(228, 86, 73);&quot;&gt;iq&lt;/span&gt;&lt;span style=&quot;color: rgb(56, 58, 66);&quot;&gt;;&lt;/span&gt;&lt;/font&gt;&lt;/div&gt;&lt;font style=&quot;font-size: 11px;&quot;&gt;&lt;br&gt;&lt;/font&gt;&lt;div style=&quot;&quot;&gt;&lt;font style=&quot;font-size: 11px;&quot;&gt;&lt;span style=&quot;color: rgb(56, 58, 66);&quot;&gt;&amp;nbsp; &amp;nbsp; &amp;nbsp; &amp;nbsp; &lt;/span&gt;&lt;span style=&quot;color: rgb(166, 38, 164);&quot;&gt;int&lt;/span&gt;&lt;span style=&quot;color: rgb(56, 58, 66);&quot;&gt; &lt;/span&gt;&lt;span style=&quot;color: rgb(228, 86, 73);&quot;&gt;initialized&lt;/span&gt;&lt;span style=&quot;color: rgb(56, 58, 66);&quot;&gt;:&lt;/span&gt;&lt;span style=&quot;color: rgb(152, 104, 1);&quot;&gt;1&lt;/span&gt;&lt;span style=&quot;color: rgb(56, 58, 66);&quot;&gt;;&lt;/span&gt;&lt;/font&gt;&lt;/div&gt;&lt;div style=&quot;&quot;&gt;&lt;font style=&quot;font-size: 11px;&quot;&gt;&lt;span style=&quot;color: rgb(56, 58, 66);&quot;&gt;&amp;nbsp; &amp;nbsp; &amp;nbsp; &amp;nbsp; &lt;/span&gt;&lt;span style=&quot;color: rgb(166, 38, 164);&quot;&gt;int&lt;/span&gt;&lt;span style=&quot;color: rgb(56, 58, 66);&quot;&gt; &lt;/span&gt;&lt;span style=&quot;color: rgb(228, 86, 73);&quot;&gt;running&lt;/span&gt;&lt;span style=&quot;color: rgb(56, 58, 66);&quot;&gt;:&lt;/span&gt;&lt;span style=&quot;color: rgb(152, 104, 1);&quot;&gt;1&lt;/span&gt;&lt;span style=&quot;color: rgb(56, 58, 66);&quot;&gt;;&lt;/span&gt;&lt;/font&gt;&lt;/div&gt;&lt;div style=&quot;&quot;&gt;&lt;span style=&quot;color: rgb(56, 58, 66);&quot;&gt;&lt;font style=&quot;font-size: 11px;&quot;&gt;};&lt;/font&gt;&lt;/span&gt;&lt;/div&gt;&lt;/div&gt;" style="text;whiteSpace=wrap;html=1;" parent="1" vertex="1">
          <mxGeometry x="610" y="-440" width="290" height="210" as="geometry" />
        </mxCell>
        <mxCell id="zwHW3op6i-iEvnCv9LnT-18" value="" style="curved=1;endArrow=classic;html=1;rounded=0;exitX=0.96;exitY=0.385;exitDx=0;exitDy=0;exitPerimeter=0;entryX=-0.025;entryY=0.103;entryDx=0;entryDy=0;entryPerimeter=0;" parent="1" source="zwHW3op6i-iEvnCv9LnT-16" target="zwHW3op6i-iEvnCv9LnT-17" edge="1">
          <mxGeometry width="50" height="50" relative="1" as="geometry">
            <mxPoint x="560" y="-340" as="sourcePoint" />
            <mxPoint x="620" y="-420" as="targetPoint" />
            <Array as="points">
              <mxPoint x="610" y="-340" />
              <mxPoint x="560" y="-390" />
            </Array>
          </mxGeometry>
        </mxCell>
        <mxCell id="zwHW3op6i-iEvnCv9LnT-19" value="&lt;div style=&quot;color: #383a42;background-color: #f5f5f5;font-family: Consolas, &#39;Courier New&#39;, monospace;font-weight: normal;font-size: 14px;line-height: 19px;white-space: pre;&quot;&gt;&lt;div&gt;&lt;span style=&quot;color: #4078f2;&quot;&gt;isp_iq_init&lt;/span&gt;&lt;/div&gt;&lt;/div&gt;" style="text;whiteSpace=wrap;html=1;" parent="1" vertex="1">
          <mxGeometry x="810" y="140" width="90" height="30" as="geometry" />
        </mxCell>
        <mxCell id="zwHW3op6i-iEvnCv9LnT-21" value="&lt;div style=&quot;background-color: rgb(245, 245, 245); font-family: Consolas, &amp;quot;Courier New&amp;quot;, monospace; font-weight: normal; font-size: 14px; line-height: 19px; white-space: pre;&quot;&gt;&lt;div style=&quot;&quot;&gt;&lt;font style=&quot;color: rgb(255, 128, 0);&quot;&gt;core-&amp;gt;initialized = RTS_ISP_TRUE;&lt;/font&gt;&lt;/div&gt;&lt;/div&gt;" style="text;whiteSpace=wrap;html=1;" parent="1" vertex="1">
          <mxGeometry x="810" y="180" width="260" height="30" as="geometry" />
        </mxCell>
        <mxCell id="zwHW3op6i-iEvnCv9LnT-23" value="&lt;div style=&quot;color: #383a42;background-color: #f5f5f5;font-family: Consolas, &#39;Courier New&#39;, monospace;font-weight: normal;font-size: 14px;line-height: 19px;white-space: pre;&quot;&gt;&lt;div&gt;&lt;span style=&quot;color: #4078f2;&quot;&gt;isp_algo_init&lt;/span&gt;&lt;/div&gt;&lt;/div&gt;" style="text;whiteSpace=wrap;html=1;" parent="1" vertex="1">
          <mxGeometry x="480" y="190" width="110" height="30" as="geometry" />
        </mxCell>
        <mxCell id="zwHW3op6i-iEvnCv9LnT-25" value="&lt;div style=&quot;color: #383a42;background-color: #f5f5f5;font-family: Consolas, &#39;Courier New&#39;, monospace;font-weight: normal;font-size: 14px;line-height: 19px;white-space: pre;&quot;&gt;&lt;div&gt;&lt;span style=&quot;color: #4078f2;&quot;&gt;isp_sensor_init&lt;/span&gt;&lt;/div&gt;&lt;/div&gt;" style="text;whiteSpace=wrap;html=1;" parent="1" vertex="1">
          <mxGeometry x="480" y="260" width="130" height="30" as="geometry" />
        </mxCell>
        <mxCell id="zwHW3op6i-iEvnCv9LnT-32" style="edgeStyle=orthogonalEdgeStyle;rounded=0;orthogonalLoop=1;jettySize=auto;html=1;exitX=1;exitY=0.5;exitDx=0;exitDy=0;entryX=0;entryY=0.5;entryDx=0;entryDy=0;" parent="1" source="zwHW3op6i-iEvnCv9LnT-27" target="zwHW3op6i-iEvnCv9LnT-31" edge="1">
          <mxGeometry relative="1" as="geometry" />
        </mxCell>
        <mxCell id="zwHW3op6i-iEvnCv9LnT-34" style="edgeStyle=orthogonalEdgeStyle;rounded=0;orthogonalLoop=1;jettySize=auto;html=1;exitX=1;exitY=0.5;exitDx=0;exitDy=0;entryX=0;entryY=0.5;entryDx=0;entryDy=0;" parent="1" source="zwHW3op6i-iEvnCv9LnT-27" target="zwHW3op6i-iEvnCv9LnT-33" edge="1">
          <mxGeometry relative="1" as="geometry" />
        </mxCell>
        <mxCell id="zwHW3op6i-iEvnCv9LnT-27" value="&lt;div style=&quot;color: #383a42;background-color: #f5f5f5;font-family: Consolas, &#39;Courier New&#39;, monospace;font-weight: normal;font-size: 14px;line-height: 19px;white-space: pre;&quot;&gt;&lt;div&gt;&lt;span style=&quot;color: #4078f2;&quot;&gt;isp_poll_create&lt;/span&gt;&lt;/div&gt;&lt;/div&gt;" style="text;whiteSpace=wrap;html=1;" parent="1" vertex="1">
          <mxGeometry x="480" y="330" width="130" height="30" as="geometry" />
        </mxCell>
        <mxCell id="zwHW3op6i-iEvnCv9LnT-29" value="&lt;div style=&quot;color: #383a42;background-color: #f5f5f5;font-family: Consolas, &#39;Courier New&#39;, monospace;font-weight: normal;font-size: 14px;line-height: 19px;white-space: pre;&quot;&gt;&lt;div&gt;&lt;span style=&quot;color: #4078f2;&quot;&gt;isp_top_poll_add&lt;/span&gt;&lt;/div&gt;&lt;/div&gt;" style="text;whiteSpace=wrap;html=1;" parent="1" vertex="1">
          <mxGeometry x="480" y="400" width="130" height="30" as="geometry" />
        </mxCell>
        <mxCell id="zwHW3op6i-iEvnCv9LnT-31" value="&lt;div style=&quot;background-color: rgb(245, 245, 245); font-family: Consolas, &amp;quot;Courier New&amp;quot;, monospace; font-weight: normal; font-size: 14px; line-height: 19px; white-space: pre;&quot;&gt;&lt;div style=&quot;&quot;&gt;&lt;span&gt;&lt;font style=&quot;color: rgb(0, 204, 0);&quot;&gt;epoll_create1&lt;/font&gt;&lt;/span&gt;&lt;/div&gt;&lt;/div&gt;" style="text;whiteSpace=wrap;html=1;" parent="1" vertex="1">
          <mxGeometry x="650" y="300" width="110" height="30" as="geometry" />
        </mxCell>
        <mxCell id="zwHW3op6i-iEvnCv9LnT-33" value="&lt;div style=&quot;color: #383a42;background-color: #f5f5f5;font-family: Consolas, &#39;Courier New&#39;, monospace;font-weight: normal;font-size: 14px;line-height: 19px;white-space: pre;&quot;&gt;&lt;div&gt;&lt;span style=&quot;color: #4078f2;&quot;&gt;poll_wq_init&lt;/span&gt;&lt;/div&gt;&lt;/div&gt;" style="text;whiteSpace=wrap;html=1;" parent="1" vertex="1">
          <mxGeometry x="650" y="340" width="100" height="30" as="geometry" />
        </mxCell>
        <mxCell id="ht368XArrU7g4tb2RllO-28" style="edgeStyle=orthogonalEdgeStyle;rounded=0;orthogonalLoop=1;jettySize=auto;html=1;exitX=1;exitY=0.5;exitDx=0;exitDy=0;entryX=0;entryY=0.5;entryDx=0;entryDy=0;" parent="1" source="ht368XArrU7g4tb2RllO-2" target="ht368XArrU7g4tb2RllO-26" edge="1">
          <mxGeometry relative="1" as="geometry" />
        </mxCell>
        <mxCell id="ht368XArrU7g4tb2RllO-29" style="edgeStyle=orthogonalEdgeStyle;rounded=0;orthogonalLoop=1;jettySize=auto;html=1;exitX=1;exitY=0.5;exitDx=0;exitDy=0;entryX=0;entryY=0.5;entryDx=0;entryDy=0;" parent="1" source="ht368XArrU7g4tb2RllO-2" target="ht368XArrU7g4tb2RllO-27" edge="1">
          <mxGeometry relative="1" as="geometry" />
        </mxCell>
        <mxCell id="juUuwl-fKoCdpQNm10XT-11" style="edgeStyle=orthogonalEdgeStyle;rounded=0;orthogonalLoop=1;jettySize=auto;html=1;exitX=1;exitY=0.5;exitDx=0;exitDy=0;entryX=0;entryY=0.5;entryDx=0;entryDy=0;" parent="1" source="ht368XArrU7g4tb2RllO-2" target="juUuwl-fKoCdpQNm10XT-10" edge="1">
          <mxGeometry relative="1" as="geometry" />
        </mxCell>
        <mxCell id="juUuwl-fKoCdpQNm10XT-16" style="edgeStyle=orthogonalEdgeStyle;rounded=0;orthogonalLoop=1;jettySize=auto;html=1;exitX=1;exitY=0.5;exitDx=0;exitDy=0;entryX=0;entryY=0.5;entryDx=0;entryDy=0;" parent="1" source="ht368XArrU7g4tb2RllO-2" target="ht368XArrU7g4tb2RllO-7" edge="1">
          <mxGeometry relative="1" as="geometry" />
        </mxCell>
        <mxCell id="ht368XArrU7g4tb2RllO-2" value="&lt;div style=&quot;color: #383a42;background-color: #f5f5f5;font-family: Consolas, &#39;Courier New&#39;, monospace;font-weight: normal;font-size: 14px;line-height: 19px;white-space: pre;&quot;&gt;&lt;div&gt;&lt;span style=&quot;color: #4078f2;&quot;&gt;register_sensor_iq&lt;/span&gt;&lt;/div&gt;&lt;/div&gt;" style="text;whiteSpace=wrap;html=1;" parent="1" vertex="1">
          <mxGeometry x="190" y="540" width="150" height="30" as="geometry" />
        </mxCell>
        <mxCell id="ht368XArrU7g4tb2RllO-5" style="edgeStyle=orthogonalEdgeStyle;rounded=0;orthogonalLoop=1;jettySize=auto;html=1;exitX=1;exitY=0.5;exitDx=0;exitDy=0;entryX=0;entryY=0.5;entryDx=0;entryDy=0;" parent="1" source="ht368XArrU7g4tb2RllO-4" target="XKCDAz_21dTOhUU2t3bO-1" edge="1">
          <mxGeometry relative="1" as="geometry" />
        </mxCell>
        <mxCell id="ht368XArrU7g4tb2RllO-6" style="edgeStyle=orthogonalEdgeStyle;rounded=0;orthogonalLoop=1;jettySize=auto;html=1;exitX=1;exitY=0.5;exitDx=0;exitDy=0;entryX=0;entryY=0.5;entryDx=0;entryDy=0;" parent="1" source="ht368XArrU7g4tb2RllO-4" target="ht368XArrU7g4tb2RllO-2" edge="1">
          <mxGeometry relative="1" as="geometry" />
        </mxCell>
        <mxCell id="ht368XArrU7g4tb2RllO-40" style="edgeStyle=orthogonalEdgeStyle;rounded=0;orthogonalLoop=1;jettySize=auto;html=1;exitX=1;exitY=0.5;exitDx=0;exitDy=0;entryX=0;entryY=0.5;entryDx=0;entryDy=0;" parent="1" source="ht368XArrU7g4tb2RllO-4" target="ht368XArrU7g4tb2RllO-39" edge="1">
          <mxGeometry relative="1" as="geometry" />
        </mxCell>
        <mxCell id="ht368XArrU7g4tb2RllO-41" style="edgeStyle=orthogonalEdgeStyle;rounded=0;orthogonalLoop=1;jettySize=auto;html=1;exitX=1;exitY=0.5;exitDx=0;exitDy=0;entryX=0;entryY=0.5;entryDx=0;entryDy=0;" parent="1" source="ht368XArrU7g4tb2RllO-4" target="ht368XArrU7g4tb2RllO-38" edge="1">
          <mxGeometry relative="1" as="geometry" />
        </mxCell>
        <mxCell id="ht368XArrU7g4tb2RllO-4" value="&lt;div style=&quot;color: rgb(56, 58, 66); background-color: rgb(245, 245, 245); font-family: Consolas, &amp;quot;Courier New&amp;quot;, monospace; font-weight: normal; font-size: 14px; line-height: 19px; white-space: pre;&quot;&gt;&lt;div&gt;&lt;span style=&quot;color: rgb(64, 120, 242);&quot;&gt;main&lt;/span&gt;&lt;/div&gt;&lt;/div&gt;" style="text;whiteSpace=wrap;html=1;" parent="1" vertex="1">
          <mxGeometry x="50" y="490" width="40" height="30" as="geometry" />
        </mxCell>
        <mxCell id="ht368XArrU7g4tb2RllO-10" value="" style="edgeStyle=orthogonalEdgeStyle;rounded=0;orthogonalLoop=1;jettySize=auto;html=1;" parent="1" source="ht368XArrU7g4tb2RllO-7" target="ht368XArrU7g4tb2RllO-9" edge="1">
          <mxGeometry relative="1" as="geometry" />
        </mxCell>
        <mxCell id="ht368XArrU7g4tb2RllO-7" value="&lt;div style=&quot;color: #383a42;background-color: #f5f5f5;font-family: Consolas, &#39;Courier New&#39;, monospace;font-weight: normal;font-size: 14px;line-height: 19px;white-space: pre;&quot;&gt;&lt;div&gt;&lt;span style=&quot;color: #4078f2;&quot;&gt;rts_av_isp_register_sensor&lt;/span&gt;&lt;/div&gt;&lt;/div&gt;" style="text;whiteSpace=wrap;html=1;" parent="1" vertex="1">
          <mxGeometry x="380" y="480" width="210" height="30" as="geometry" />
        </mxCell>
        <mxCell id="ht368XArrU7g4tb2RllO-12" value="" style="edgeStyle=orthogonalEdgeStyle;rounded=0;orthogonalLoop=1;jettySize=auto;html=1;" parent="1" source="ht368XArrU7g4tb2RllO-9" target="ht368XArrU7g4tb2RllO-11" edge="1">
          <mxGeometry relative="1" as="geometry" />
        </mxCell>
        <mxCell id="ht368XArrU7g4tb2RllO-9" value="&lt;div style=&quot;color: #383a42;background-color: #f5f5f5;font-family: Consolas, &#39;Courier New&#39;, monospace;font-weight: normal;font-size: 14px;line-height: 19px;white-space: pre;&quot;&gt;&lt;div&gt;&lt;span style=&quot;color: #4078f2;&quot;&gt;isp_top_register_sensor&lt;/span&gt;&lt;/div&gt;&lt;/div&gt;" style="text;whiteSpace=wrap;html=1;" parent="1" vertex="1">
          <mxGeometry x="623.5" y="480" width="183" height="30" as="geometry" />
        </mxCell>
        <mxCell id="ht368XArrU7g4tb2RllO-16" style="edgeStyle=orthogonalEdgeStyle;rounded=0;orthogonalLoop=1;jettySize=auto;html=1;exitX=1;exitY=0.5;exitDx=0;exitDy=0;entryX=0;entryY=0.5;entryDx=0;entryDy=0;" parent="1" source="ht368XArrU7g4tb2RllO-11" target="ht368XArrU7g4tb2RllO-13" edge="1">
          <mxGeometry relative="1" as="geometry" />
        </mxCell>
        <mxCell id="ht368XArrU7g4tb2RllO-17" style="edgeStyle=orthogonalEdgeStyle;rounded=0;orthogonalLoop=1;jettySize=auto;html=1;exitX=1;exitY=0.5;exitDx=0;exitDy=0;entryX=0;entryY=0.5;entryDx=0;entryDy=0;" parent="1" source="ht368XArrU7g4tb2RllO-11" target="ht368XArrU7g4tb2RllO-14" edge="1">
          <mxGeometry relative="1" as="geometry" />
        </mxCell>
        <mxCell id="ht368XArrU7g4tb2RllO-18" style="edgeStyle=orthogonalEdgeStyle;rounded=0;orthogonalLoop=1;jettySize=auto;html=1;exitX=1;exitY=0.5;exitDx=0;exitDy=0;entryX=0;entryY=0.5;entryDx=0;entryDy=0;" parent="1" source="ht368XArrU7g4tb2RllO-11" target="ht368XArrU7g4tb2RllO-15" edge="1">
          <mxGeometry relative="1" as="geometry" />
        </mxCell>
        <mxCell id="ht368XArrU7g4tb2RllO-11" value="&lt;div style=&quot;color: #383a42;background-color: #f5f5f5;font-family: Consolas, &#39;Courier New&#39;, monospace;font-weight: normal;font-size: 14px;line-height: 19px;white-space: pre;&quot;&gt;&lt;div&gt;&lt;span style=&quot;color: #4078f2;&quot;&gt;isp_sensor_register&lt;/span&gt;&lt;/div&gt;&lt;/div&gt;" style="text;whiteSpace=wrap;html=1;" parent="1" vertex="1">
          <mxGeometry x="850" y="480" width="150" height="30" as="geometry" />
        </mxCell>
        <mxCell id="ht368XArrU7g4tb2RllO-13" value="&lt;div style=&quot;color: #383a42;background-color: #f5f5f5;font-family: Consolas, &#39;Courier New&#39;, monospace;font-weight: normal;font-size: 14px;line-height: 19px;white-space: pre;&quot;&gt;&lt;div&gt;&lt;span style=&quot;color: #4078f2;&quot;&gt;sensor_check&lt;/span&gt;&lt;/div&gt;&lt;/div&gt;" style="text;whiteSpace=wrap;html=1;" parent="1" vertex="1">
          <mxGeometry x="1040" y="380" width="100" height="30" as="geometry" />
        </mxCell>
        <mxCell id="ht368XArrU7g4tb2RllO-14" value="&lt;div style=&quot;color: #383a42;background-color: #f5f5f5;font-family: Consolas, &#39;Courier New&#39;, monospace;font-weight: normal;font-size: 14px;line-height: 19px;white-space: pre;&quot;&gt;&lt;div&gt;&lt;span style=&quot;color: #4078f2;&quot;&gt;sensor_find_sensor_slot&lt;/span&gt;&lt;/div&gt;&lt;/div&gt;" style="text;whiteSpace=wrap;html=1;" parent="1" vertex="1">
          <mxGeometry x="1040" y="440" width="190" height="30" as="geometry" />
        </mxCell>
        <mxCell id="ht368XArrU7g4tb2RllO-23" style="edgeStyle=orthogonalEdgeStyle;rounded=0;orthogonalLoop=1;jettySize=auto;html=1;exitX=1;exitY=0.5;exitDx=0;exitDy=0;entryX=0;entryY=0.5;entryDx=0;entryDy=0;" parent="1" source="ht368XArrU7g4tb2RllO-15" target="ht368XArrU7g4tb2RllO-19" edge="1">
          <mxGeometry relative="1" as="geometry" />
        </mxCell>
        <mxCell id="ht368XArrU7g4tb2RllO-24" style="edgeStyle=orthogonalEdgeStyle;rounded=0;orthogonalLoop=1;jettySize=auto;html=1;exitX=1;exitY=0.5;exitDx=0;exitDy=0;entryX=0;entryY=0.5;entryDx=0;entryDy=0;" parent="1" source="ht368XArrU7g4tb2RllO-15" target="ht368XArrU7g4tb2RllO-20" edge="1">
          <mxGeometry relative="1" as="geometry" />
        </mxCell>
        <mxCell id="ht368XArrU7g4tb2RllO-15" value="&lt;div style=&quot;color: #383a42;background-color: #f5f5f5;font-family: Consolas, &#39;Courier New&#39;, monospace;font-weight: normal;font-size: 14px;line-height: 19px;white-space: pre;&quot;&gt;&lt;div&gt;&lt;span style=&quot;color: #4078f2;&quot;&gt;isp_plugin_load&lt;/span&gt;&lt;/div&gt;&lt;/div&gt;" style="text;whiteSpace=wrap;html=1;" parent="1" vertex="1">
          <mxGeometry x="1040" y="500" width="130" height="30" as="geometry" />
        </mxCell>
        <mxCell id="ht368XArrU7g4tb2RllO-19" value="&lt;div style=&quot;background-color: rgb(245, 245, 245); font-family: Consolas, &amp;quot;Courier New&amp;quot;, monospace; font-weight: normal; font-size: 14px; line-height: 19px; white-space: pre;&quot;&gt;&lt;div style=&quot;&quot;&gt;&lt;font style=&quot;color: rgb(0, 204, 0);&quot;&gt;&lt;span&gt;dlopen&lt;/span&gt;&lt;span&gt;(&lt;/span&gt;&lt;span&gt;plugin&lt;/span&gt;&lt;span&gt;-&amp;gt;&lt;/span&gt;&lt;span&gt;path&lt;/span&gt;&lt;span&gt;, &lt;/span&gt;&lt;span&gt;RTLD_NOW&lt;/span&gt;&lt;span&gt;);&lt;/span&gt;&lt;/font&gt;&lt;/div&gt;&lt;/div&gt;" style="text;whiteSpace=wrap;html=1;" parent="1" vertex="1">
          <mxGeometry x="1220" y="500" width="250" height="30" as="geometry" />
        </mxCell>
        <mxCell id="ht368XArrU7g4tb2RllO-22" value="" style="edgeStyle=orthogonalEdgeStyle;rounded=0;orthogonalLoop=1;jettySize=auto;html=1;" parent="1" source="ht368XArrU7g4tb2RllO-20" target="ht368XArrU7g4tb2RllO-21" edge="1">
          <mxGeometry relative="1" as="geometry" />
        </mxCell>
        <mxCell id="ht368XArrU7g4tb2RllO-20" value="&lt;div style=&quot;color: #383a42;background-color: #f5f5f5;font-family: Consolas, &#39;Courier New&#39;, monospace;font-weight: normal;font-size: 14px;line-height: 19px;white-space: pre;&quot;&gt;&lt;div&gt;&lt;span style=&quot;color: #4078f2;&quot;&gt;plugin_parse_ops_handle&lt;/span&gt;&lt;/div&gt;&lt;/div&gt;" style="text;whiteSpace=wrap;html=1;" parent="1" vertex="1">
          <mxGeometry x="1220" y="540" width="190" height="30" as="geometry" />
        </mxCell>
        <mxCell id="ht368XArrU7g4tb2RllO-21" value="&lt;div style=&quot;background-color: rgb(245, 245, 245); font-family: Consolas, &amp;quot;Courier New&amp;quot;, monospace; font-weight: normal; font-size: 14px; line-height: 19px; white-space: pre;&quot;&gt;&lt;div style=&quot;&quot;&gt;&lt;font style=&quot;color: rgb(0, 204, 0);&quot;&gt;func_ptr = dlsym(plugin-&amp;gt;dl_handle, plugin-&amp;gt;func);&lt;/font&gt;&lt;/div&gt;&lt;div style=&quot;&quot;&gt;&lt;font style=&quot;color: rgb(0, 204, 0);&quot;&gt;&lt;div style=&quot;line-height: 19px;&quot;&gt;plugin-&amp;gt;ops_handle = func_ptr();&lt;/div&gt;&lt;/font&gt;&lt;/div&gt;&lt;/div&gt;" style="text;whiteSpace=wrap;html=1;" parent="1" vertex="1">
          <mxGeometry x="1440" y="530" width="390" height="50" as="geometry" />
        </mxCell>
        <mxCell id="ht368XArrU7g4tb2RllO-25" value="&lt;font style=&quot;font-size: 11px; color: rgb(153, 153, 153);&quot;&gt;cmos_sensor/目录编译出来的sensor动态库&lt;/font&gt;" style="text;html=1;align=center;verticalAlign=middle;whiteSpace=wrap;rounded=0;" parent="1" vertex="1">
          <mxGeometry x="1230" y="460" width="250" height="30" as="geometry" />
        </mxCell>
        <mxCell id="ht368XArrU7g4tb2RllO-31" value="" style="edgeStyle=orthogonalEdgeStyle;rounded=0;orthogonalLoop=1;jettySize=auto;html=1;" parent="1" source="ht368XArrU7g4tb2RllO-26" target="ht368XArrU7g4tb2RllO-30" edge="1">
          <mxGeometry relative="1" as="geometry" />
        </mxCell>
        <mxCell id="ht368XArrU7g4tb2RllO-26" value="&lt;div style=&quot;color: #383a42;background-color: #f5f5f5;font-family: Consolas, &#39;Courier New&#39;, monospace;font-weight: normal;font-size: 14px;line-height: 19px;white-space: pre;&quot;&gt;&lt;div&gt;&lt;span style=&quot;color: #4078f2;&quot;&gt;rts_av_isp_bind_sensor&lt;/span&gt;&lt;/div&gt;&lt;/div&gt;" style="text;whiteSpace=wrap;html=1;" parent="1" vertex="1">
          <mxGeometry x="380" y="711.87" width="180" height="30" as="geometry" />
        </mxCell>
        <mxCell id="ht368XArrU7g4tb2RllO-33" value="" style="edgeStyle=orthogonalEdgeStyle;rounded=0;orthogonalLoop=1;jettySize=auto;html=1;" parent="1" source="ht368XArrU7g4tb2RllO-27" target="ht368XArrU7g4tb2RllO-32" edge="1">
          <mxGeometry relative="1" as="geometry" />
        </mxCell>
        <mxCell id="ht368XArrU7g4tb2RllO-27" value="&lt;div style=&quot;color: #383a42;background-color: #f5f5f5;font-family: Consolas, &#39;Courier New&#39;, monospace;font-weight: normal;font-size: 14px;line-height: 19px;white-space: pre;&quot;&gt;&lt;div&gt;&lt;span style=&quot;color: #4078f2;&quot;&gt;rts_av_isp_register_iq&lt;/span&gt;&lt;/div&gt;&lt;/div&gt;" style="text;whiteSpace=wrap;html=1;" parent="1" vertex="1">
          <mxGeometry x="380" y="781.87" width="180" height="30" as="geometry" />
        </mxCell>
        <mxCell id="ht368XArrU7g4tb2RllO-35" value="" style="edgeStyle=orthogonalEdgeStyle;rounded=0;orthogonalLoop=1;jettySize=auto;html=1;" parent="1" source="ht368XArrU7g4tb2RllO-30" target="ht368XArrU7g4tb2RllO-34" edge="1">
          <mxGeometry relative="1" as="geometry" />
        </mxCell>
        <mxCell id="ht368XArrU7g4tb2RllO-30" value="&lt;div style=&quot;color: #383a42;background-color: #f5f5f5;font-family: Consolas, &#39;Courier New&#39;, monospace;font-weight: normal;font-size: 14px;line-height: 19px;white-space: pre;&quot;&gt;&lt;div&gt;&lt;span style=&quot;color: #4078f2;&quot;&gt;isp_top_bind_sensor&lt;/span&gt;&lt;/div&gt;&lt;/div&gt;" style="text;whiteSpace=wrap;html=1;" parent="1" vertex="1">
          <mxGeometry x="600" y="710.62" width="160" height="32.5" as="geometry" />
        </mxCell>
        <mxCell id="ndd3EkNMUoFdSmk4QpKc-12" style="edgeStyle=orthogonalEdgeStyle;rounded=0;orthogonalLoop=1;jettySize=auto;html=1;exitX=1;exitY=0.5;exitDx=0;exitDy=0;entryX=0;entryY=0.5;entryDx=0;entryDy=0;" parent="1" source="ht368XArrU7g4tb2RllO-32" target="ndd3EkNMUoFdSmk4QpKc-11" edge="1">
          <mxGeometry relative="1" as="geometry" />
        </mxCell>
        <mxCell id="ht368XArrU7g4tb2RllO-32" value="&lt;div style=&quot;color: #383a42;background-color: #f5f5f5;font-family: Consolas, &#39;Courier New&#39;, monospace;font-weight: normal;font-size: 14px;line-height: 19px;white-space: pre;&quot;&gt;&lt;div&gt;&lt;span style=&quot;color: #4078f2;&quot;&gt;isp_top_register_iq&lt;/span&gt;&lt;/div&gt;&lt;/div&gt;" style="text;whiteSpace=wrap;html=1;" parent="1" vertex="1">
          <mxGeometry x="600" y="781.87" width="160" height="30" as="geometry" />
        </mxCell>
        <mxCell id="ht368XArrU7g4tb2RllO-37" value="" style="edgeStyle=orthogonalEdgeStyle;rounded=0;orthogonalLoop=1;jettySize=auto;html=1;" parent="1" source="ht368XArrU7g4tb2RllO-34" target="ht368XArrU7g4tb2RllO-36" edge="1">
          <mxGeometry relative="1" as="geometry" />
        </mxCell>
        <mxCell id="ht368XArrU7g4tb2RllO-34" value="&lt;div style=&quot;color: #383a42;background-color: #f5f5f5;font-family: Consolas, &#39;Courier New&#39;, monospace;font-weight: normal;font-size: 14px;line-height: 19px;white-space: pre;&quot;&gt;&lt;div&gt;&lt;span style=&quot;color: #4078f2;&quot;&gt;isp_sensor_bind&lt;/span&gt;&lt;/div&gt;&lt;/div&gt;" style="text;whiteSpace=wrap;html=1;" parent="1" vertex="1">
          <mxGeometry x="790" y="710.62" width="130" height="31.25" as="geometry" />
        </mxCell>
        <mxCell id="ht368XArrU7g4tb2RllO-36" value="&lt;div style=&quot;background-color: rgb(245, 245, 245); font-family: Consolas, &amp;quot;Courier New&amp;quot;, monospace; font-weight: normal; font-size: 14px; line-height: 19px; white-space: pre;&quot;&gt;&lt;div style=&quot;&quot;&gt;&lt;font style=&quot;color: rgb(255, 128, 0);&quot;&gt;&lt;span&gt;snrm&lt;/span&gt;&lt;span&gt;-&amp;gt;&lt;/span&gt;&lt;span&gt;binding&lt;/span&gt;&lt;span&gt;[&lt;/span&gt;&lt;span&gt;isp_id&lt;/span&gt;&lt;span&gt;] &lt;/span&gt;&lt;span&gt;=&lt;/span&gt;&lt;span&gt; &lt;/span&gt;&lt;span&gt;sensor_id&lt;/span&gt;&lt;span&gt;;&lt;/span&gt;&lt;/font&gt;&lt;/div&gt;&lt;/div&gt;" style="text;whiteSpace=wrap;html=1;" parent="1" vertex="1">
          <mxGeometry x="950" y="710" width="270" height="33.75" as="geometry" />
        </mxCell>
        <mxCell id="ht368XArrU7g4tb2RllO-43" value="" style="edgeStyle=orthogonalEdgeStyle;rounded=0;orthogonalLoop=1;jettySize=auto;html=1;" parent="1" source="ht368XArrU7g4tb2RllO-38" target="ht368XArrU7g4tb2RllO-42" edge="1">
          <mxGeometry relative="1" as="geometry" />
        </mxCell>
        <mxCell id="ndd3EkNMUoFdSmk4QpKc-2" style="edgeStyle=orthogonalEdgeStyle;rounded=0;orthogonalLoop=1;jettySize=auto;html=1;exitX=1;exitY=0.5;exitDx=0;exitDy=0;entryX=0;entryY=0.5;entryDx=0;entryDy=0;" parent="1" source="ht368XArrU7g4tb2RllO-38" target="ndd3EkNMUoFdSmk4QpKc-1" edge="1">
          <mxGeometry relative="1" as="geometry" />
        </mxCell>
        <mxCell id="ndd3EkNMUoFdSmk4QpKc-4" style="edgeStyle=orthogonalEdgeStyle;rounded=0;orthogonalLoop=1;jettySize=auto;html=1;exitX=1;exitY=0.5;exitDx=0;exitDy=0;entryX=0;entryY=0.5;entryDx=0;entryDy=0;" parent="1" source="ht368XArrU7g4tb2RllO-38" target="ndd3EkNMUoFdSmk4QpKc-3" edge="1">
          <mxGeometry relative="1" as="geometry" />
        </mxCell>
        <mxCell id="ht368XArrU7g4tb2RllO-38" value="&lt;div style=&quot;color: #383a42;background-color: #f5f5f5;font-family: Consolas, &#39;Courier New&#39;, monospace;font-weight: normal;font-size: 14px;line-height: 19px;white-space: pre;&quot;&gt;&lt;div&gt;&lt;span style=&quot;color: #4078f2;&quot;&gt;rts_av_isp_start&lt;/span&gt;&lt;/div&gt;&lt;/div&gt;" style="text;whiteSpace=wrap;html=1;" parent="1" vertex="1">
          <mxGeometry x="190" y="971.87" width="130" height="30" as="geometry" />
        </mxCell>
        <mxCell id="ht368XArrU7g4tb2RllO-39" value="&lt;div style=&quot;color: #383a42;background-color: #f5f5f5;font-family: Consolas, &#39;Courier New&#39;, monospace;font-weight: normal;font-size: 14px;line-height: 19px;white-space: pre;&quot;&gt;&lt;div&gt;&lt;span style=&quot;color: #4078f2;&quot;&gt;register_all_algos&lt;/span&gt;&lt;/div&gt;&lt;/div&gt;" style="text;whiteSpace=wrap;html=1;" parent="1" vertex="1">
          <mxGeometry x="190" y="910" width="150" height="30" as="geometry" />
        </mxCell>
        <mxCell id="ht368XArrU7g4tb2RllO-45" value="" style="edgeStyle=orthogonalEdgeStyle;rounded=0;orthogonalLoop=1;jettySize=auto;html=1;" parent="1" source="ht368XArrU7g4tb2RllO-42" target="ht368XArrU7g4tb2RllO-44" edge="1">
          <mxGeometry relative="1" as="geometry" />
        </mxCell>
        <mxCell id="ht368XArrU7g4tb2RllO-42" value="&lt;div style=&quot;color: #383a42;background-color: #f5f5f5;font-family: Consolas, &#39;Courier New&#39;, monospace;font-weight: normal;font-size: 14px;line-height: 19px;white-space: pre;&quot;&gt;&lt;div&gt;&lt;span style=&quot;color: #4078f2;&quot;&gt;isp_top_core_run&lt;/span&gt;&lt;/div&gt;&lt;/div&gt;" style="text;whiteSpace=wrap;html=1;" parent="1" vertex="1">
          <mxGeometry x="360" y="971.87" width="130" height="30" as="geometry" />
        </mxCell>
        <mxCell id="ndd3EkNMUoFdSmk4QpKc-8" style="edgeStyle=orthogonalEdgeStyle;rounded=0;orthogonalLoop=1;jettySize=auto;html=1;exitX=1;exitY=0.5;exitDx=0;exitDy=0;entryX=0;entryY=0.5;entryDx=0;entryDy=0;" parent="1" source="ht368XArrU7g4tb2RllO-44" target="ndd3EkNMUoFdSmk4QpKc-7" edge="1">
          <mxGeometry relative="1" as="geometry" />
        </mxCell>
        <mxCell id="ndd3EkNMUoFdSmk4QpKc-29" style="edgeStyle=orthogonalEdgeStyle;rounded=0;orthogonalLoop=1;jettySize=auto;html=1;exitX=1;exitY=0.5;exitDx=0;exitDy=0;entryX=0;entryY=0.5;entryDx=0;entryDy=0;" parent="1" source="ht368XArrU7g4tb2RllO-44" target="ndd3EkNMUoFdSmk4QpKc-23" edge="1">
          <mxGeometry relative="1" as="geometry" />
        </mxCell>
        <mxCell id="juUuwl-fKoCdpQNm10XT-39" style="edgeStyle=orthogonalEdgeStyle;rounded=0;orthogonalLoop=1;jettySize=auto;html=1;exitX=1;exitY=0.5;exitDx=0;exitDy=0;entryX=0;entryY=0.5;entryDx=0;entryDy=0;" parent="1" source="ht368XArrU7g4tb2RllO-44" target="juUuwl-fKoCdpQNm10XT-38" edge="1">
          <mxGeometry relative="1" as="geometry" />
        </mxCell>
        <mxCell id="ht368XArrU7g4tb2RllO-44" value="&lt;div style=&quot;color: #383a42;background-color: #f5f5f5;font-family: Consolas, &#39;Courier New&#39;, monospace;font-weight: normal;font-size: 14px;line-height: 19px;white-space: pre;&quot;&gt;&lt;div&gt;&lt;span style=&quot;color: #4078f2;&quot;&gt;isp_core_start&lt;/span&gt;&lt;/div&gt;&lt;/div&gt;" style="text;whiteSpace=wrap;html=1;" parent="1" vertex="1">
          <mxGeometry x="530" y="971.87" width="120" height="30" as="geometry" />
        </mxCell>
        <mxCell id="ht368XArrU7g4tb2RllO-50" style="edgeStyle=orthogonalEdgeStyle;rounded=0;orthogonalLoop=1;jettySize=auto;html=1;exitX=1;exitY=0.5;exitDx=0;exitDy=0;entryX=0;entryY=0.5;entryDx=0;entryDy=0;" parent="1" source="ht368XArrU7g4tb2RllO-46" target="ht368XArrU7g4tb2RllO-48" edge="1">
          <mxGeometry relative="1" as="geometry" />
        </mxCell>
        <mxCell id="ht368XArrU7g4tb2RllO-51" style="edgeStyle=orthogonalEdgeStyle;rounded=0;orthogonalLoop=1;jettySize=auto;html=1;exitX=1;exitY=0.5;exitDx=0;exitDy=0;entryX=0;entryY=0.5;entryDx=0;entryDy=0;" parent="1" source="ht368XArrU7g4tb2RllO-46" target="ht368XArrU7g4tb2RllO-49" edge="1">
          <mxGeometry relative="1" as="geometry" />
        </mxCell>
        <mxCell id="ht368XArrU7g4tb2RllO-46" value="&lt;div style=&quot;color: #383a42;background-color: #f5f5f5;font-family: Consolas, &#39;Courier New&#39;, monospace;font-weight: normal;font-size: 14px;line-height: 19px;white-space: pre;&quot;&gt;&lt;div&gt;&lt;span style=&quot;color: #4078f2;&quot;&gt;isp_core_register_mod&lt;/span&gt;&lt;/div&gt;&lt;/div&gt;" style="text;whiteSpace=wrap;html=1;" parent="1" vertex="1">
          <mxGeometry x="1210" y="100" width="170" height="30" as="geometry" />
        </mxCell>
        <mxCell id="ht368XArrU7g4tb2RllO-48" value="&lt;div style=&quot;color: #383a42;background-color: #f5f5f5;font-family: Consolas, &#39;Courier New&#39;, monospace;font-weight: normal;font-size: 14px;line-height: 19px;white-space: pre;&quot;&gt;&lt;div&gt;&lt;span style=&quot;color: #4078f2;&quot;&gt;core_add_mod_to_hash&lt;/span&gt;&lt;/div&gt;&lt;/div&gt;" style="text;whiteSpace=wrap;html=1;" parent="1" vertex="1">
          <mxGeometry x="1420" y="60" width="170" height="30" as="geometry" />
        </mxCell>
        <mxCell id="ht368XArrU7g4tb2RllO-49" value="&lt;div style=&quot;color: #383a42;background-color: #f5f5f5;font-family: Consolas, &#39;Courier New&#39;, monospace;font-weight: normal;font-size: 14px;line-height: 19px;white-space: pre;&quot;&gt;&lt;div&gt;&lt;span style=&quot;color: #4078f2;&quot;&gt;isp_notify_add_mod&lt;/span&gt;&lt;/div&gt;&lt;/div&gt;" style="text;whiteSpace=wrap;html=1;" parent="1" vertex="1">
          <mxGeometry x="1420" y="130" width="150" height="30" as="geometry" />
        </mxCell>
        <mxCell id="ht368XArrU7g4tb2RllO-53" value="&lt;div style=&quot;color: #383a42;background-color: #f5f5f5;font-family: Consolas, &#39;Courier New&#39;, monospace;font-weight: normal;font-size: 14px;line-height: 19px;white-space: pre;&quot;&gt;&lt;div&gt;&lt;span style=&quot;color: #4078f2;&quot;&gt;core_mod_hash_table_init&lt;/span&gt;&lt;/div&gt;&lt;/div&gt;" style="text;whiteSpace=wrap;html=1;" parent="1" vertex="1">
          <mxGeometry x="820" y="-10" width="200" height="30" as="geometry" />
        </mxCell>
        <mxCell id="ht368XArrU7g4tb2RllO-54" value="&lt;div style=&quot;color: #383a42;background-color: #f5f5f5;font-family: Consolas, &#39;Courier New&#39;, monospace;font-weight: normal;font-size: 14px;line-height: 19px;white-space: pre;&quot;&gt;&lt;div&gt;&lt;span style=&quot;color: #4078f2;&quot;&gt;isp_notify_init&lt;/span&gt;&lt;/div&gt;&lt;/div&gt;" style="text;whiteSpace=wrap;html=1;" parent="1" vertex="1">
          <mxGeometry x="820" y="40" width="120" height="30" as="geometry" />
        </mxCell>
        <mxCell id="ndd3EkNMUoFdSmk4QpKc-1" value="&lt;div style=&quot;color: #383a42;background-color: #f5f5f5;font-family: Consolas, &#39;Courier New&#39;, monospace;font-weight: normal;font-size: 14px;line-height: 19px;white-space: pre;&quot;&gt;&lt;div&gt;&lt;span style=&quot;color: #4078f2;&quot;&gt;isp_poll_loop_run&lt;/span&gt;&lt;/div&gt;&lt;/div&gt;" style="text;whiteSpace=wrap;html=1;" parent="1" vertex="1">
          <mxGeometry x="360" y="1300" width="140" height="30" as="geometry" />
        </mxCell>
        <mxCell id="ndd3EkNMUoFdSmk4QpKc-6" value="" style="edgeStyle=orthogonalEdgeStyle;rounded=0;orthogonalLoop=1;jettySize=auto;html=1;" parent="1" source="ndd3EkNMUoFdSmk4QpKc-3" target="ndd3EkNMUoFdSmk4QpKc-5" edge="1">
          <mxGeometry relative="1" as="geometry" />
        </mxCell>
        <mxCell id="ndd3EkNMUoFdSmk4QpKc-3" value="&lt;div style=&quot;color: #383a42;background-color: #f5f5f5;font-family: Consolas, &#39;Courier New&#39;, monospace;font-weight: normal;font-size: 14px;line-height: 19px;white-space: pre;&quot;&gt;&lt;div&gt;&lt;span style=&quot;color: #4078f2;&quot;&gt;isp_driver_isp_clk_get&lt;/span&gt;&lt;/div&gt;&lt;/div&gt;" style="text;whiteSpace=wrap;html=1;" parent="1" vertex="1">
          <mxGeometry x="360" y="1230" width="180" height="30" as="geometry" />
        </mxCell>
        <mxCell id="ndd3EkNMUoFdSmk4QpKc-5" value="&lt;div style=&quot;color: #383a42;background-color: #f5f5f5;font-family: Consolas, &#39;Courier New&#39;, monospace;font-weight: normal;font-size: 14px;line-height: 19px;white-space: pre;&quot;&gt;&lt;div&gt;&lt;span style=&quot;color: #aca600;&quot;&gt;xioctl&lt;/span&gt;&lt;span style=&quot;color: #383a42;&quot;&gt;(fd, RTSISP_IOC_GET_ISP_CLOCK, &lt;/span&gt;&lt;span style=&quot;color: #986801;&quot;&gt;NULL&lt;/span&gt;&lt;span style=&quot;color: #383a42;&quot;&gt;);&lt;/span&gt;&lt;/div&gt;&lt;/div&gt;" style="text;whiteSpace=wrap;html=1;" parent="1" vertex="1">
          <mxGeometry x="575" y="1230" width="335" height="30" as="geometry" />
        </mxCell>
        <mxCell id="ndd3EkNMUoFdSmk4QpKc-22" value="" style="edgeStyle=orthogonalEdgeStyle;rounded=0;orthogonalLoop=1;jettySize=auto;html=1;" parent="1" source="ndd3EkNMUoFdSmk4QpKc-7" target="ndd3EkNMUoFdSmk4QpKc-21" edge="1">
          <mxGeometry relative="1" as="geometry" />
        </mxCell>
        <mxCell id="ndd3EkNMUoFdSmk4QpKc-7" value="&lt;div style=&quot;color: #383a42;background-color: #f5f5f5;font-family: Consolas, &#39;Courier New&#39;, monospace;font-weight: normal;font-size: 14px;line-height: 19px;white-space: pre;&quot;&gt;&lt;div&gt;&lt;span style=&quot;color: #4078f2;&quot;&gt;isp_iq_load_from_file&lt;/span&gt;&lt;/div&gt;&lt;/div&gt;" style="text;whiteSpace=wrap;html=1;" parent="1" vertex="1">
          <mxGeometry x="690" y="901.87" width="170" height="30" as="geometry" />
        </mxCell>
        <mxCell id="ndd3EkNMUoFdSmk4QpKc-15" value="" style="edgeStyle=orthogonalEdgeStyle;rounded=0;orthogonalLoop=1;jettySize=auto;html=1;" parent="1" source="ndd3EkNMUoFdSmk4QpKc-11" target="ndd3EkNMUoFdSmk4QpKc-14" edge="1">
          <mxGeometry relative="1" as="geometry" />
        </mxCell>
        <mxCell id="ndd3EkNMUoFdSmk4QpKc-11" value="&lt;div style=&quot;color: #383a42;background-color: #f5f5f5;font-family: Consolas, &#39;Courier New&#39;, monospace;font-weight: normal;font-size: 14px;line-height: 19px;white-space: pre;&quot;&gt;&lt;div&gt;&lt;span style=&quot;color: #4078f2;&quot;&gt;isp_iq_register&lt;/span&gt;&lt;/div&gt;&lt;/div&gt;" style="text;whiteSpace=wrap;html=1;" parent="1" vertex="1">
          <mxGeometry x="790" y="781.87" width="120" height="30" as="geometry" />
        </mxCell>
        <mxCell id="ndd3EkNMUoFdSmk4QpKc-13" value="&lt;font style=&quot;color: rgb(128, 128, 128);&quot;&gt;注册sensor和iq&lt;/font&gt;" style="text;html=1;align=center;verticalAlign=middle;whiteSpace=wrap;rounded=0;" parent="1" vertex="1">
          <mxGeometry x="200" y="510" width="100" height="30" as="geometry" />
        </mxCell>
        <mxCell id="ndd3EkNMUoFdSmk4QpKc-20" value="" style="edgeStyle=orthogonalEdgeStyle;rounded=0;orthogonalLoop=1;jettySize=auto;html=1;" parent="1" source="ndd3EkNMUoFdSmk4QpKc-14" target="ndd3EkNMUoFdSmk4QpKc-18" edge="1">
          <mxGeometry relative="1" as="geometry" />
        </mxCell>
        <mxCell id="ndd3EkNMUoFdSmk4QpKc-14" value="&lt;div style=&quot;color: #383a42;background-color: #f5f5f5;font-family: Consolas, &#39;Courier New&#39;, monospace;font-weight: normal;font-size: 14px;line-height: 19px;white-space: pre;&quot;&gt;&lt;div&gt;&lt;span style=&quot;color: #4078f2;&quot;&gt;iq_check_set_packed_iq&lt;/span&gt;&lt;/div&gt;&lt;/div&gt;" style="text;whiteSpace=wrap;html=1;" parent="1" vertex="1">
          <mxGeometry x="940" y="781.87" width="180" height="28.75" as="geometry" />
        </mxCell>
        <mxCell id="ndd3EkNMUoFdSmk4QpKc-16" value="&lt;div style=&quot;color: rgb(56, 58, 66); background-color: rgb(245, 245, 245); font-family: Consolas, &amp;quot;Courier New&amp;quot;, monospace; font-weight: normal; line-height: 19px; white-space: pre;&quot;&gt;&lt;div style=&quot;&quot;&gt;&lt;font style=&quot;font-size: 11px;&quot;&gt;&lt;span style=&quot;color: rgb(166, 38, 164);&quot;&gt;struct&lt;/span&gt;&lt;span style=&quot;color: rgb(56, 58, 66);&quot;&gt; &lt;/span&gt;&lt;span style=&quot;color: rgb(193, 132, 1);&quot;&gt;isp_iq&lt;/span&gt;&lt;span style=&quot;color: rgb(56, 58, 66);&quot;&gt; {&lt;/span&gt;&lt;/font&gt;&lt;/div&gt;&lt;div style=&quot;&quot;&gt;&lt;font style=&quot;font-size: 11px;&quot;&gt;&lt;span style=&quot;color: rgb(56, 58, 66);&quot;&gt;&amp;nbsp; &amp;nbsp; &amp;nbsp; &amp;nbsp; &lt;/span&gt;&lt;span style=&quot;color: rgb(166, 38, 164);&quot;&gt;int&lt;/span&gt;&lt;span style=&quot;color: rgb(56, 58, 66);&quot;&gt; &lt;/span&gt;&lt;span style=&quot;color: rgb(228, 86, 73);&quot;&gt;id&lt;/span&gt;&lt;span style=&quot;color: rgb(56, 58, 66);&quot;&gt;;&lt;/span&gt;&lt;/font&gt;&lt;/div&gt;&lt;div style=&quot;&quot;&gt;&lt;font style=&quot;font-size: 11px;&quot;&gt;&lt;span style=&quot;color: rgb(56, 58, 66);&quot;&gt;&amp;nbsp; &amp;nbsp; &amp;nbsp; &amp;nbsp; &lt;/span&gt;&lt;span style=&quot;color: rgb(166, 38, 164);&quot;&gt;int&lt;/span&gt;&lt;span style=&quot;color: rgb(56, 58, 66);&quot;&gt; &lt;/span&gt;&lt;span style=&quot;color: rgb(228, 86, 73);&quot;&gt;dn&lt;/span&gt;&lt;span style=&quot;color: rgb(56, 58, 66);&quot;&gt;;&lt;/span&gt;&lt;/font&gt;&lt;/div&gt;&lt;font style=&quot;font-size: 11px;&quot;&gt;&lt;br&gt;&lt;/font&gt;&lt;div style=&quot;&quot;&gt;&lt;font style=&quot;font-size: 11px;&quot;&gt;&lt;span style=&quot;color: rgb(56, 58, 66);&quot;&gt;&amp;nbsp; &amp;nbsp; &amp;nbsp; &amp;nbsp; &lt;/span&gt;&lt;span style=&quot;color: rgb(166, 38, 164);&quot;&gt;int&lt;/span&gt;&lt;span style=&quot;color: rgb(56, 58, 66);&quot;&gt; &lt;/span&gt;&lt;span style=&quot;color: rgb(228, 86, 73);&quot;&gt;mode&lt;/span&gt;&lt;span style=&quot;color: rgb(56, 58, 66);&quot;&gt;;&lt;/span&gt;&lt;/font&gt;&lt;/div&gt;&lt;div style=&quot;&quot;&gt;&lt;font style=&quot;font-size: 11px;&quot;&gt;&lt;span style=&quot;color: rgb(56, 58, 66);&quot;&gt;&amp;nbsp; &amp;nbsp; &amp;nbsp; &amp;nbsp; &lt;/span&gt;&lt;span style=&quot;color: rgb(166, 38, 164);&quot;&gt;int&lt;/span&gt;&lt;span style=&quot;color: rgb(56, 58, 66);&quot;&gt; &lt;/span&gt;&lt;span style=&quot;color: rgb(228, 86, 73);&quot;&gt;scene&lt;/span&gt;&lt;span style=&quot;color: rgb(56, 58, 66);&quot;&gt;;&lt;/span&gt;&lt;/font&gt;&lt;/div&gt;&lt;div style=&quot;&quot;&gt;&lt;font style=&quot;font-size: 11px;&quot;&gt;&lt;span style=&quot;color: rgb(56, 58, 66);&quot;&gt;&amp;nbsp; &amp;nbsp; &amp;nbsp; &amp;nbsp; &lt;/span&gt;&lt;span style=&quot;color: rgb(166, 38, 164);&quot;&gt;bool&lt;/span&gt;&lt;span style=&quot;color: rgb(56, 58, 66);&quot;&gt; &lt;/span&gt;&lt;span style=&quot;color: rgb(228, 86, 73);&quot;&gt;scene_has_set&lt;/span&gt;&lt;span style=&quot;color: rgb(56, 58, 66);&quot;&gt;;&lt;/span&gt;&lt;/font&gt;&lt;/div&gt;&lt;div style=&quot;&quot;&gt;&lt;font style=&quot;font-size: 11px;&quot;&gt;&lt;span style=&quot;color: rgb(56, 58, 66);&quot;&gt;&amp;nbsp; &amp;nbsp; &amp;nbsp; &amp;nbsp; &lt;/span&gt;&lt;span style=&quot;color: rgb(166, 38, 164);&quot;&gt;bool&lt;/span&gt;&lt;span style=&quot;color: rgb(56, 58, 66);&quot;&gt; &lt;/span&gt;&lt;span style=&quot;color: rgb(228, 86, 73);&quot;&gt;outdoor&lt;/span&gt;&lt;span style=&quot;color: rgb(56, 58, 66);&quot;&gt;;&lt;/span&gt;&lt;/font&gt;&lt;/div&gt;&lt;div style=&quot;&quot;&gt;&lt;font style=&quot;font-size: 11px;&quot;&gt;&lt;span style=&quot;color: rgb(56, 58, 66);&quot;&gt;&amp;nbsp; &amp;nbsp; &amp;nbsp; &amp;nbsp; &lt;/span&gt;&lt;span style=&quot;color: rgb(166, 38, 164);&quot;&gt;bool&lt;/span&gt;&lt;span style=&quot;color: rgb(56, 58, 66);&quot;&gt; &lt;/span&gt;&lt;span style=&quot;color: rgb(228, 86, 73);&quot;&gt;high_temp&lt;/span&gt;&lt;span style=&quot;color: rgb(56, 58, 66);&quot;&gt;;&lt;/span&gt;&lt;/font&gt;&lt;/div&gt;&lt;font style=&quot;font-size: 11px;&quot;&gt;&lt;br&gt;&lt;/font&gt;&lt;div style=&quot;&quot;&gt;&lt;font style=&quot;font-size: 11px;&quot;&gt;&lt;span style=&quot;color: rgb(56, 58, 66);&quot;&gt;&amp;nbsp; &amp;nbsp; &amp;nbsp; &amp;nbsp; &lt;/span&gt;&lt;span style=&quot;color: rgb(166, 38, 164);&quot;&gt;char&lt;/span&gt;&lt;span style=&quot;color: rgb(56, 58, 66);&quot;&gt; &lt;/span&gt;&lt;span style=&quot;color: rgb(228, 86, 73);&quot;&gt;path&lt;/span&gt;&lt;span style=&quot;color: rgb(56, 58, 66);&quot;&gt;[&lt;/span&gt;&lt;span style=&quot;color: rgb(172, 166, 0);&quot;&gt;RTS_ISP_PATH_LEN&lt;/span&gt;&lt;span style=&quot;color: rgb(56, 58, 66);&quot;&gt;];&lt;/span&gt;&lt;/font&gt;&lt;/div&gt;&lt;div style=&quot;&quot;&gt;&lt;font style=&quot;font-size: 11px;&quot;&gt;&lt;span style=&quot;color: rgb(56, 58, 66);&quot;&gt;&amp;nbsp; &amp;nbsp; &amp;nbsp; &amp;nbsp; &lt;/span&gt;&lt;span style=&quot;color: rgb(166, 38, 164);&quot;&gt;struct&lt;/span&gt;&lt;span style=&quot;color: rgb(56, 58, 66);&quot;&gt; &lt;/span&gt;&lt;span style=&quot;color: rgb(193, 132, 1);&quot;&gt;isp_iq_entry&lt;/span&gt;&lt;span style=&quot;color: rgb(56, 58, 66);&quot;&gt; &lt;/span&gt;&lt;span style=&quot;color: rgb(166, 38, 164);&quot;&gt;*&lt;/span&gt;&lt;span style=&quot;color: rgb(228, 86, 73);&quot;&gt;entries&lt;/span&gt;&lt;span style=&quot;color: rgb(56, 58, 66);&quot;&gt;;&lt;/span&gt;&lt;/font&gt;&lt;/div&gt;&lt;div style=&quot;&quot;&gt;&lt;font style=&quot;font-size: 11px;&quot;&gt;&lt;span style=&quot;color: rgb(56, 58, 66);&quot;&gt;&amp;nbsp; &amp;nbsp; &amp;nbsp; &amp;nbsp; &lt;/span&gt;&lt;span style=&quot;color: rgb(166, 38, 164);&quot;&gt;struct&lt;/span&gt;&lt;span style=&quot;color: rgb(56, 58, 66);&quot;&gt; &lt;/span&gt;&lt;span style=&quot;color: rgb(193, 132, 1);&quot;&gt;isp_iq_binary_desc&lt;/span&gt;&lt;span style=&quot;color: rgb(56, 58, 66);&quot;&gt; &lt;/span&gt;&lt;span style=&quot;color: rgb(166, 38, 164);&quot;&gt;*&lt;/span&gt;&lt;span style=&quot;color: rgb(228, 86, 73);&quot;&gt;binaries&lt;/span&gt;&lt;span style=&quot;color: rgb(56, 58, 66);&quot;&gt;;&lt;/span&gt;&lt;/font&gt;&lt;/div&gt;&lt;div style=&quot;&quot;&gt;&lt;font style=&quot;font-size: 11px;&quot;&gt;&lt;span style=&quot;color: rgb(56, 58, 66);&quot;&gt;&amp;nbsp; &amp;nbsp; &amp;nbsp; &amp;nbsp; &lt;/span&gt;&lt;span style=&quot;color: rgb(1, 132, 188);&quot;&gt;isp_iq_table_t&lt;/span&gt;&lt;span style=&quot;color: rgb(56, 58, 66);&quot;&gt; &lt;/span&gt;&lt;span style=&quot;color: rgb(166, 38, 164);&quot;&gt;*&lt;/span&gt;&lt;span style=&quot;color: rgb(228, 86, 73);&quot;&gt;iq_table&lt;/span&gt;&lt;span style=&quot;color: rgb(56, 58, 66);&quot;&gt;;&lt;/span&gt;&lt;/font&gt;&lt;/div&gt;&lt;div style=&quot;&quot;&gt;&lt;font style=&quot;font-size: 11px;&quot;&gt;&lt;span style=&quot;color: rgb(56, 58, 66);&quot;&gt;&amp;nbsp; &amp;nbsp; &amp;nbsp; &amp;nbsp; &lt;/span&gt;&lt;span style=&quot;color: rgb(1, 132, 188);&quot;&gt;isp_algo_param_t&lt;/span&gt;&lt;span style=&quot;color: rgb(56, 58, 66);&quot;&gt; &lt;/span&gt;&lt;span style=&quot;color: rgb(228, 86, 73);&quot;&gt;algo_param&lt;/span&gt;&lt;span style=&quot;color: rgb(56, 58, 66);&quot;&gt;;&lt;/span&gt;&lt;/font&gt;&lt;/div&gt;&lt;div style=&quot;&quot;&gt;&lt;font style=&quot;font-size: 11px;&quot;&gt;&lt;span style=&quot;color: rgb(56, 58, 66);&quot;&gt;&amp;nbsp; &amp;nbsp; &amp;nbsp; &amp;nbsp; &lt;/span&gt;&lt;span style=&quot;color: rgb(1, 132, 188);&quot;&gt;uint32_t&lt;/span&gt;&lt;span style=&quot;color: rgb(56, 58, 66);&quot;&gt; &lt;/span&gt;&lt;span style=&quot;color: rgb(228, 86, 73);&quot;&gt;packed_version&lt;/span&gt;&lt;span style=&quot;color: rgb(56, 58, 66);&quot;&gt;;&lt;/span&gt;&lt;/font&gt;&lt;/div&gt;&lt;div style=&quot;&quot;&gt;&lt;font style=&quot;font-size: 11px;&quot;&gt;&lt;span style=&quot;color: rgb(56, 58, 66);&quot;&gt;&amp;nbsp; &amp;nbsp; &amp;nbsp; &amp;nbsp; &lt;/span&gt;&lt;span style=&quot;color: rgb(1, 132, 188);&quot;&gt;uint8_t&lt;/span&gt;&lt;span style=&quot;color: rgb(56, 58, 66);&quot;&gt; &lt;/span&gt;&lt;span style=&quot;color: rgb(228, 86, 73);&quot;&gt;cus_version&lt;/span&gt;&lt;span style=&quot;color: rgb(56, 58, 66);&quot;&gt;;&lt;/span&gt;&lt;/font&gt;&lt;/div&gt;&lt;div style=&quot;&quot;&gt;&lt;font style=&quot;font-size: 11px;&quot;&gt;&lt;span style=&quot;color: rgb(56, 58, 66);&quot;&gt;&amp;nbsp; &amp;nbsp; &amp;nbsp; &amp;nbsp; &lt;/span&gt;&lt;span style=&quot;color: rgb(1, 132, 188);&quot;&gt;uint64_t&lt;/span&gt;&lt;span style=&quot;color: rgb(56, 58, 66);&quot;&gt; &lt;/span&gt;&lt;span style=&quot;color: rgb(228, 86, 73);&quot;&gt;timestamp&lt;/span&gt;&lt;span style=&quot;color: rgb(56, 58, 66);&quot;&gt;;&lt;/span&gt;&lt;/font&gt;&lt;/div&gt;&lt;font style=&quot;font-size: 11px;&quot;&gt;&lt;br&gt;&lt;/font&gt;&lt;div style=&quot;&quot;&gt;&lt;font style=&quot;font-size: 11px;&quot;&gt;&lt;span style=&quot;color: rgb(56, 58, 66);&quot;&gt;&amp;nbsp; &amp;nbsp; &amp;nbsp; &amp;nbsp; &lt;/span&gt;&lt;span style=&quot;color: rgb(1, 132, 188);&quot;&gt;uint32_t&lt;/span&gt;&lt;span style=&quot;color: rgb(56, 58, 66);&quot;&gt; &lt;/span&gt;&lt;span style=&quot;color: rgb(228, 86, 73);&quot;&gt;entry_bits&lt;/span&gt;&lt;span style=&quot;color: rgb(56, 58, 66);&quot;&gt;;&lt;/span&gt;&lt;/font&gt;&lt;/div&gt;&lt;font style=&quot;font-size: 11px;&quot;&gt;&lt;br&gt;&lt;/font&gt;&lt;div style=&quot;&quot;&gt;&lt;font style=&quot;font-size: 11px;&quot;&gt;&lt;span style=&quot;color: rgb(56, 58, 66);&quot;&gt;&amp;nbsp; &amp;nbsp; &amp;nbsp; &amp;nbsp; &lt;/span&gt;&lt;span style=&quot;color: rgb(1, 132, 188);&quot;&gt;uint32_t&lt;/span&gt;&lt;span style=&quot;color: rgb(56, 58, 66);&quot;&gt; &lt;/span&gt;&lt;span style=&quot;color: rgb(228, 86, 73);&quot;&gt;owner_id&lt;/span&gt;&lt;span style=&quot;color: rgb(56, 58, 66);&quot;&gt;;&lt;/span&gt;&lt;/font&gt;&lt;/div&gt;&lt;div style=&quot;&quot;&gt;&lt;span style=&quot;color: rgb(56, 58, 66);&quot;&gt;&lt;font style=&quot;font-size: 11px;&quot;&gt;};&lt;/font&gt;&lt;/span&gt;&lt;/div&gt;&lt;/div&gt;" style="text;whiteSpace=wrap;html=1;" parent="1" vertex="1">
          <mxGeometry x="1010" y="-660" width="270" height="460" as="geometry" />
        </mxCell>
        <mxCell id="ndd3EkNMUoFdSmk4QpKc-17" value="" style="curved=1;endArrow=classic;html=1;rounded=0;exitX=0.586;exitY=0.524;exitDx=0;exitDy=0;exitPerimeter=0;entryX=-0.01;entryY=0.067;entryDx=0;entryDy=0;entryPerimeter=0;" parent="1" target="ndd3EkNMUoFdSmk4QpKc-16" edge="1">
          <mxGeometry width="50" height="50" relative="1" as="geometry">
            <mxPoint x="780" y="-321.12000000000006" as="sourcePoint" />
            <mxPoint x="1041.4099999999999" y="-629.9999999999999" as="targetPoint" />
            <Array as="points">
              <mxPoint x="980.06" y="-361.16" />
              <mxPoint x="930.06" y="-491.16" />
            </Array>
          </mxGeometry>
        </mxCell>
        <mxCell id="ndd3EkNMUoFdSmk4QpKc-18" value="&lt;div style=&quot;background-color: rgb(245, 245, 245); font-family: Consolas, &amp;quot;Courier New&amp;quot;, monospace; font-weight: normal; font-size: 14px; line-height: 19px; white-space: pre;&quot;&gt;&lt;div style=&quot;&quot;&gt;&lt;font style=&quot;color: rgb(255, 128, 0);&quot;&gt;从iq bin file中获取信息填充isp_iq结构体&lt;/font&gt;&lt;/div&gt;&lt;/div&gt;" style="text;whiteSpace=wrap;html=1;" parent="1" vertex="1">
          <mxGeometry x="1150" y="780" width="300" height="33.75" as="geometry" />
        </mxCell>
        <mxCell id="ndd3EkNMUoFdSmk4QpKc-21" value="&lt;div style=&quot;background-color: rgb(245, 245, 245); font-family: Consolas, &amp;quot;Courier New&amp;quot;, monospace; font-weight: normal; font-size: 14px; line-height: 19px; white-space: pre;&quot;&gt;&lt;div style=&quot;&quot;&gt;&lt;font color=&quot;#ff8000&quot;&gt;加载iq table&lt;/font&gt;&lt;/div&gt;&lt;/div&gt;" style="text;whiteSpace=wrap;html=1;" parent="1" vertex="1">
          <mxGeometry x="890" y="900" width="100" height="33.75" as="geometry" />
        </mxCell>
        <mxCell id="ndd3EkNMUoFdSmk4QpKc-26" style="edgeStyle=orthogonalEdgeStyle;rounded=0;orthogonalLoop=1;jettySize=auto;html=1;exitX=1;exitY=0.5;exitDx=0;exitDy=0;entryX=0;entryY=0.5;entryDx=0;entryDy=0;" parent="1" source="ndd3EkNMUoFdSmk4QpKc-23" target="ndd3EkNMUoFdSmk4QpKc-24" edge="1">
          <mxGeometry relative="1" as="geometry" />
        </mxCell>
        <mxCell id="ndd3EkNMUoFdSmk4QpKc-23" value="&lt;div style=&quot;color: #383a42;background-color: #f5f5f5;font-family: Consolas, &#39;Courier New&#39;, monospace;font-weight: normal;font-size: 14px;line-height: 19px;white-space: pre;&quot;&gt;&lt;div&gt;&lt;span style=&quot;color: #4078f2;&quot;&gt;core_parse_all_mod&lt;/span&gt;&lt;/div&gt;&lt;/div&gt;" style="text;whiteSpace=wrap;html=1;" parent="1" vertex="1">
          <mxGeometry x="690" y="971.87" width="150" height="30" as="geometry" />
        </mxCell>
        <mxCell id="ndd3EkNMUoFdSmk4QpKc-24" value="&lt;div style=&quot;color: #383a42;background-color: #f5f5f5;font-family: Consolas, &#39;Courier New&#39;, monospace;font-weight: normal;font-size: 14px;line-height: 19px;white-space: pre;&quot;&gt;&lt;div&gt;&lt;span style=&quot;color: #4078f2;&quot;&gt;isp_mod_init&lt;/span&gt;&lt;/div&gt;&lt;/div&gt;" style="text;whiteSpace=wrap;html=1;" parent="1" vertex="1">
          <mxGeometry x="900" y="951.87" width="100" height="30" as="geometry" />
        </mxCell>
        <mxCell id="ndd3EkNMUoFdSmk4QpKc-25" value="&lt;div style=&quot;color: #383a42;background-color: #f5f5f5;font-family: Consolas, &#39;Courier New&#39;, monospace;font-weight: normal;font-size: 14px;line-height: 19px;white-space: pre;&quot;&gt;&lt;div&gt;&lt;span style=&quot;color: #4078f2;&quot;&gt;isp_mod_hardware_init&lt;/span&gt;&lt;/div&gt;&lt;/div&gt;" style="text;whiteSpace=wrap;html=1;" parent="1" vertex="1">
          <mxGeometry x="900" y="991.87" width="170" height="30" as="geometry" />
        </mxCell>
        <mxCell id="ndd3EkNMUoFdSmk4QpKc-27" style="edgeStyle=orthogonalEdgeStyle;rounded=0;orthogonalLoop=1;jettySize=auto;html=1;exitX=1;exitY=0.5;exitDx=0;exitDy=0;entryX=-0.039;entryY=0.544;entryDx=0;entryDy=0;entryPerimeter=0;" parent="1" source="ndd3EkNMUoFdSmk4QpKc-23" target="ndd3EkNMUoFdSmk4QpKc-25" edge="1">
          <mxGeometry relative="1" as="geometry" />
        </mxCell>
        <mxCell id="ndd3EkNMUoFdSmk4QpKc-28" value="&lt;font style=&quot;font-size: 11px; color: rgb(128, 128, 128);&quot;&gt;每个mod执行init函数&lt;/font&gt;" style="text;html=1;align=center;verticalAlign=middle;whiteSpace=wrap;rounded=0;" parent="1" vertex="1">
          <mxGeometry x="850" y="933.75" width="120" height="30" as="geometry" />
        </mxCell>
        <mxCell id="juUuwl-fKoCdpQNm10XT-6" style="edgeStyle=orthogonalEdgeStyle;rounded=0;orthogonalLoop=1;jettySize=auto;html=1;exitX=1;exitY=0.5;exitDx=0;exitDy=0;entryX=0;entryY=0.5;entryDx=0;entryDy=0;" parent="1" source="juUuwl-fKoCdpQNm10XT-1" target="juUuwl-fKoCdpQNm10XT-3" edge="1">
          <mxGeometry relative="1" as="geometry" />
        </mxCell>
        <mxCell id="juUuwl-fKoCdpQNm10XT-1" value="&lt;div style=&quot;color: #383a42;background-color: #f5f5f5;font-family: Consolas, &#39;Courier New&#39;, monospace;font-weight: normal;font-size: 14px;line-height: 19px;white-space: pre;&quot;&gt;&lt;div&gt;&lt;span style=&quot;color: #4078f2;&quot;&gt;driver_set_io_base&lt;/span&gt;&lt;/div&gt;&lt;/div&gt;" style="text;whiteSpace=wrap;html=1;" parent="1" vertex="1">
          <mxGeometry x="655" y="-80" width="145" height="30" as="geometry" />
        </mxCell>
        <mxCell id="juUuwl-fKoCdpQNm10XT-7" value="" style="edgeStyle=orthogonalEdgeStyle;rounded=0;orthogonalLoop=1;jettySize=auto;html=1;" parent="1" source="juUuwl-fKoCdpQNm10XT-3" target="juUuwl-fKoCdpQNm10XT-4" edge="1">
          <mxGeometry relative="1" as="geometry" />
        </mxCell>
        <mxCell id="juUuwl-fKoCdpQNm10XT-3" value="&lt;div style=&quot;color: #383a42;background-color: #f5f5f5;font-family: Consolas, &#39;Courier New&#39;, monospace;font-weight: normal;font-size: 14px;line-height: 19px;white-space: pre;&quot;&gt;&lt;div&gt;&lt;span style=&quot;color: #aca600;&quot;&gt;RTSISP_IOC_GET_IO_START&lt;/span&gt;&lt;/div&gt;&lt;/div&gt;" style="text;whiteSpace=wrap;html=1;" parent="1" vertex="1">
          <mxGeometry x="830" y="-80" width="190" height="30" as="geometry" />
        </mxCell>
        <mxCell id="juUuwl-fKoCdpQNm10XT-8" value="" style="edgeStyle=orthogonalEdgeStyle;rounded=0;orthogonalLoop=1;jettySize=auto;html=1;" parent="1" source="juUuwl-fKoCdpQNm10XT-4" target="juUuwl-fKoCdpQNm10XT-5" edge="1">
          <mxGeometry relative="1" as="geometry" />
        </mxCell>
        <mxCell id="juUuwl-fKoCdpQNm10XT-4" value="&lt;div style=&quot;color: #383a42;background-color: #f5f5f5;font-family: Consolas, &#39;Courier New&#39;, monospace;font-weight: normal;font-size: 14px;line-height: 19px;white-space: pre;&quot;&gt;&lt;div&gt;&lt;span style=&quot;color: #aca600;&quot;&gt;RTSISP_IOC_GET_IO_SIZE&lt;/span&gt;&lt;/div&gt;&lt;/div&gt;" style="text;whiteSpace=wrap;html=1;" parent="1" vertex="1">
          <mxGeometry x="1050" y="-80" width="180" height="30" as="geometry" />
        </mxCell>
        <mxCell id="juUuwl-fKoCdpQNm10XT-5" value="&lt;div style=&quot;color: #383a42;background-color: #f5f5f5;font-family: Consolas, &#39;Courier New&#39;, monospace;font-weight: normal;font-size: 14px;line-height: 19px;white-space: pre;&quot;&gt;&lt;div&gt;&lt;span style=&quot;color: #0184bc;&quot;&gt;mmap&lt;/span&gt;&lt;/div&gt;&lt;/div&gt;" style="text;whiteSpace=wrap;html=1;" parent="1" vertex="1">
          <mxGeometry x="1260" y="-80" width="40" height="30" as="geometry" />
        </mxCell>
        <mxCell id="juUuwl-fKoCdpQNm10XT-9" value="&lt;font style=&quot;font-size: 11px; color: rgb(153, 153, 153);&quot;&gt;通过mmap映射isp寄存器到userspace读写&lt;/font&gt;" style="text;html=1;align=center;verticalAlign=middle;whiteSpace=wrap;rounded=0;" parent="1" vertex="1">
          <mxGeometry x="1160" y="-100" width="230" height="30" as="geometry" />
        </mxCell>
        <mxCell id="juUuwl-fKoCdpQNm10XT-13" value="" style="edgeStyle=orthogonalEdgeStyle;rounded=0;orthogonalLoop=1;jettySize=auto;html=1;" parent="1" source="juUuwl-fKoCdpQNm10XT-10" target="juUuwl-fKoCdpQNm10XT-12" edge="1">
          <mxGeometry relative="1" as="geometry" />
        </mxCell>
        <mxCell id="juUuwl-fKoCdpQNm10XT-10" value="&lt;div style=&quot;color: #383a42;background-color: #f5f5f5;font-family: Consolas, &#39;Courier New&#39;, monospace;font-weight: normal;font-size: 14px;line-height: 19px;white-space: pre;&quot;&gt;&lt;div&gt;&lt;span style=&quot;color: #4078f2;&quot;&gt;rts_av_isp_check_sensor&lt;/span&gt;&lt;/div&gt;&lt;/div&gt;" style="text;whiteSpace=wrap;html=1;" parent="1" vertex="1">
          <mxGeometry x="380" y="590" width="190" height="30" as="geometry" />
        </mxCell>
        <mxCell id="juUuwl-fKoCdpQNm10XT-15" value="" style="edgeStyle=orthogonalEdgeStyle;rounded=0;orthogonalLoop=1;jettySize=auto;html=1;" parent="1" source="juUuwl-fKoCdpQNm10XT-12" target="juUuwl-fKoCdpQNm10XT-14" edge="1">
          <mxGeometry relative="1" as="geometry" />
        </mxCell>
        <mxCell id="juUuwl-fKoCdpQNm10XT-12" value="&lt;div style=&quot;color: #383a42;background-color: #f5f5f5;font-family: Consolas, &#39;Courier New&#39;, monospace;font-weight: normal;font-size: 14px;line-height: 19px;white-space: pre;&quot;&gt;&lt;div&gt;&lt;span style=&quot;color: #4078f2;&quot;&gt;isp_top_check_sensor&lt;/span&gt;&lt;/div&gt;&lt;/div&gt;" style="text;whiteSpace=wrap;html=1;" parent="1" vertex="1">
          <mxGeometry x="600" y="590" width="160" height="30" as="geometry" />
        </mxCell>
        <mxCell id="juUuwl-fKoCdpQNm10XT-25" style="edgeStyle=orthogonalEdgeStyle;rounded=0;orthogonalLoop=1;jettySize=auto;html=1;exitX=1;exitY=0.5;exitDx=0;exitDy=0;entryX=0;entryY=0.5;entryDx=0;entryDy=0;" parent="1" source="juUuwl-fKoCdpQNm10XT-14" target="juUuwl-fKoCdpQNm10XT-19" edge="1">
          <mxGeometry relative="1" as="geometry" />
        </mxCell>
        <mxCell id="juUuwl-fKoCdpQNm10XT-26" style="edgeStyle=orthogonalEdgeStyle;rounded=0;orthogonalLoop=1;jettySize=auto;html=1;exitX=1;exitY=0.5;exitDx=0;exitDy=0;entryX=0;entryY=0.5;entryDx=0;entryDy=0;" parent="1" source="juUuwl-fKoCdpQNm10XT-14" target="juUuwl-fKoCdpQNm10XT-22" edge="1">
          <mxGeometry relative="1" as="geometry" />
        </mxCell>
        <mxCell id="juUuwl-fKoCdpQNm10XT-27" style="edgeStyle=orthogonalEdgeStyle;rounded=0;orthogonalLoop=1;jettySize=auto;html=1;exitX=1;exitY=0.5;exitDx=0;exitDy=0;entryX=0;entryY=0.5;entryDx=0;entryDy=0;" parent="1" source="juUuwl-fKoCdpQNm10XT-14" target="juUuwl-fKoCdpQNm10XT-23" edge="1">
          <mxGeometry relative="1" as="geometry" />
        </mxCell>
        <mxCell id="juUuwl-fKoCdpQNm10XT-30" style="edgeStyle=orthogonalEdgeStyle;rounded=0;orthogonalLoop=1;jettySize=auto;html=1;exitX=1;exitY=0.5;exitDx=0;exitDy=0;entryX=0;entryY=0.5;entryDx=0;entryDy=0;" parent="1" source="juUuwl-fKoCdpQNm10XT-14" target="juUuwl-fKoCdpQNm10XT-29" edge="1">
          <mxGeometry relative="1" as="geometry" />
        </mxCell>
        <mxCell id="juUuwl-fKoCdpQNm10XT-31" style="edgeStyle=orthogonalEdgeStyle;rounded=0;orthogonalLoop=1;jettySize=auto;html=1;exitX=1;exitY=0.5;exitDx=0;exitDy=0;entryX=0;entryY=0.5;entryDx=0;entryDy=0;" parent="1" source="juUuwl-fKoCdpQNm10XT-14" target="juUuwl-fKoCdpQNm10XT-28" edge="1">
          <mxGeometry relative="1" as="geometry" />
        </mxCell>
        <mxCell id="juUuwl-fKoCdpQNm10XT-14" value="&lt;div style=&quot;color: #383a42;background-color: #f5f5f5;font-family: Consolas, &#39;Courier New&#39;, monospace;font-weight: normal;font-size: 14px;line-height: 19px;white-space: pre;&quot;&gt;&lt;div&gt;&lt;span style=&quot;color: #4078f2;&quot;&gt;isp_sensor_check&lt;/span&gt;&lt;/div&gt;&lt;/div&gt;" style="text;whiteSpace=wrap;html=1;" parent="1" vertex="1">
          <mxGeometry x="790" y="590" width="130" height="30" as="geometry" />
        </mxCell>
        <mxCell id="juUuwl-fKoCdpQNm10XT-19" value="&lt;div style=&quot;color: #383a42;background-color: #f5f5f5;font-family: Consolas, &#39;Courier New&#39;, monospace;font-weight: normal;font-size: 14px;line-height: 19px;white-space: pre;&quot;&gt;&lt;div&gt;&lt;span style=&quot;color: #4078f2;&quot;&gt;isp_sensor_get_ops&lt;/span&gt;&lt;/div&gt;&lt;/div&gt;" style="text;whiteSpace=wrap;html=1;" parent="1" vertex="1">
          <mxGeometry x="955" y="560" width="150" height="30" as="geometry" />
        </mxCell>
        <mxCell id="juUuwl-fKoCdpQNm10XT-22" value="&lt;div style=&quot;color: #383a42;background-color: #f5f5f5;font-family: Consolas, &#39;Courier New&#39;, monospace;font-weight: normal;font-size: 14px;line-height: 19px;white-space: pre;&quot;&gt;&lt;div&gt;&lt;span style=&quot;color: #e45649;&quot;&gt;ops&lt;/span&gt;&lt;span style=&quot;color: #383a42;&quot;&gt;-&amp;gt;&lt;/span&gt;&lt;span style=&quot;color: #e45649;&quot;&gt;init&lt;/span&gt;&lt;/div&gt;&lt;/div&gt;" style="text;whiteSpace=wrap;html=1;" parent="1" vertex="1">
          <mxGeometry x="960" y="590" width="80" height="30" as="geometry" />
        </mxCell>
        <mxCell id="juUuwl-fKoCdpQNm10XT-23" value="&lt;div style=&quot;color: #383a42;background-color: #f5f5f5;font-family: Consolas, &#39;Courier New&#39;, monospace;font-weight: normal;font-size: 14px;line-height: 19px;white-space: pre;&quot;&gt;&lt;div&gt;&lt;span style=&quot;color: #e45649;&quot;&gt;ops&lt;/span&gt;&lt;span style=&quot;color: #383a42;&quot;&gt;-&amp;gt;&lt;/span&gt;&lt;span style=&quot;color: #e45649;&quot;&gt;get_info&lt;/span&gt;&lt;/div&gt;&lt;/div&gt;" style="text;whiteSpace=wrap;html=1;" parent="1" vertex="1">
          <mxGeometry x="960" y="620" width="110" height="30" as="geometry" />
        </mxCell>
        <mxCell id="juUuwl-fKoCdpQNm10XT-28" value="&lt;div style=&quot;color: #383a42;background-color: #f5f5f5;font-family: Consolas, &#39;Courier New&#39;, monospace;font-weight: normal;font-size: 14px;line-height: 19px;white-space: pre;&quot;&gt;&lt;div&gt;&lt;span style=&quot;color: #e45649;&quot;&gt;ops&lt;/span&gt;&lt;span style=&quot;color: #383a42;&quot;&gt;-&amp;gt;&lt;/span&gt;&lt;span style=&quot;color: #e45649;&quot;&gt;check&lt;/span&gt;&lt;/div&gt;&lt;/div&gt;" style="text;whiteSpace=wrap;html=1;" parent="1" vertex="1">
          <mxGeometry x="960" y="680" width="90" height="30" as="geometry" />
        </mxCell>
        <mxCell id="juUuwl-fKoCdpQNm10XT-36" value="" style="edgeStyle=orthogonalEdgeStyle;rounded=0;orthogonalLoop=1;jettySize=auto;html=1;" parent="1" source="juUuwl-fKoCdpQNm10XT-29" target="juUuwl-fKoCdpQNm10XT-33" edge="1">
          <mxGeometry relative="1" as="geometry" />
        </mxCell>
        <mxCell id="juUuwl-fKoCdpQNm10XT-29" value="&lt;div style=&quot;color: #383a42;background-color: #f5f5f5;font-family: Consolas, &#39;Courier New&#39;, monospace;font-weight: normal;font-size: 14px;line-height: 19px;white-space: pre;&quot;&gt;&lt;div&gt;&lt;span style=&quot;color: #4078f2;&quot;&gt;isp_driver_set_power&lt;/span&gt;&lt;/div&gt;&lt;/div&gt;" style="text;whiteSpace=wrap;html=1;" parent="1" vertex="1">
          <mxGeometry x="960" y="650" width="160" height="30" as="geometry" />
        </mxCell>
        <mxCell id="juUuwl-fKoCdpQNm10XT-32" value="&lt;font style=&quot;font-size: 11px; color: rgb(153, 153, 153);&quot;&gt;调用sensor回调&lt;/font&gt;" style="text;html=1;align=center;verticalAlign=middle;whiteSpace=wrap;rounded=0;" parent="1" vertex="1">
          <mxGeometry x="910" y="540" width="100" height="30" as="geometry" />
        </mxCell>
        <mxCell id="juUuwl-fKoCdpQNm10XT-33" value="&lt;div style=&quot;color: #383a42;background-color: #f5f5f5;font-family: Consolas, &#39;Courier New&#39;, monospace;font-weight: normal;font-size: 14px;line-height: 19px;white-space: pre;&quot;&gt;&lt;div&gt;&lt;span style=&quot;color: #aca600;&quot;&gt;RTSISP_IOC_POWER&lt;/span&gt;&lt;/div&gt;&lt;/div&gt;" style="text;whiteSpace=wrap;html=1;" parent="1" vertex="1">
          <mxGeometry x="1150" y="650" width="130" height="30" as="geometry" />
        </mxCell>
        <mxCell id="juUuwl-fKoCdpQNm10XT-37" value="&lt;font color=&quot;#999999&quot;&gt;&lt;span style=&quot;font-size: 11px;&quot;&gt;设置sensor power&lt;/span&gt;&lt;/font&gt;" style="text;html=1;align=center;verticalAlign=middle;whiteSpace=wrap;rounded=0;" parent="1" vertex="1">
          <mxGeometry x="1140" y="630" width="100" height="20" as="geometry" />
        </mxCell>
        <mxCell id="juUuwl-fKoCdpQNm10XT-42" style="edgeStyle=orthogonalEdgeStyle;rounded=0;orthogonalLoop=1;jettySize=auto;html=1;exitX=1;exitY=0.5;exitDx=0;exitDy=0;entryX=0;entryY=0.5;entryDx=0;entryDy=0;" parent="1" source="juUuwl-fKoCdpQNm10XT-38" target="juUuwl-fKoCdpQNm10XT-40" edge="1">
          <mxGeometry relative="1" as="geometry" />
        </mxCell>
        <mxCell id="juUuwl-fKoCdpQNm10XT-43" style="edgeStyle=orthogonalEdgeStyle;rounded=0;orthogonalLoop=1;jettySize=auto;html=1;exitX=1;exitY=0.5;exitDx=0;exitDy=0;entryX=0;entryY=0.5;entryDx=0;entryDy=0;" parent="1" source="juUuwl-fKoCdpQNm10XT-38" target="juUuwl-fKoCdpQNm10XT-41" edge="1">
          <mxGeometry relative="1" as="geometry" />
        </mxCell>
        <mxCell id="juUuwl-fKoCdpQNm10XT-38" value="&lt;div style=&quot;color: #383a42;background-color: #f5f5f5;font-family: Consolas, &#39;Courier New&#39;, monospace;font-weight: normal;font-size: 14px;line-height: 19px;white-space: pre;&quot;&gt;&lt;div&gt;&lt;span style=&quot;color: #4078f2;&quot;&gt;isp_core_notify&lt;/span&gt;&lt;/div&gt;&lt;/div&gt;" style="text;whiteSpace=wrap;html=1;" parent="1" vertex="1">
          <mxGeometry x="690" y="1030" width="130" height="30" as="geometry" />
        </mxCell>
        <mxCell id="juUuwl-fKoCdpQNm10XT-40" value="&lt;div style=&quot;color: #383a42;background-color: #f5f5f5;font-family: Consolas, &#39;Courier New&#39;, monospace;font-weight: normal;font-size: 14px;line-height: 19px;white-space: pre;&quot;&gt;&lt;div&gt;&lt;span style=&quot;color: #e45649;&quot;&gt;ISP_NOTIFY_MODE_CHANGE&lt;/span&gt;&lt;/div&gt;&lt;/div&gt;" style="text;whiteSpace=wrap;html=1;" parent="1" vertex="1">
          <mxGeometry x="860" y="1030" width="180" height="30" as="geometry" />
        </mxCell>
        <mxCell id="juUuwl-fKoCdpQNm10XT-41" value="&lt;div style=&quot;color: #383a42;background-color: #f5f5f5;font-family: Consolas, &#39;Courier New&#39;, monospace;font-weight: normal;font-size: 14px;line-height: 19px;white-space: pre;&quot;&gt;&lt;div&gt;&lt;span style=&quot;color: #e45649;&quot;&gt;ISP_NOTIFY_IQ_CHANGE&lt;/span&gt;&lt;/div&gt;&lt;/div&gt;" style="text;whiteSpace=wrap;html=1;" parent="1" vertex="1">
          <mxGeometry x="860" y="1060" width="160" height="30" as="geometry" />
        </mxCell>
        <mxCell id="mUxfSGTV0tOqRw0Oa9tG-16" style="edgeStyle=orthogonalEdgeStyle;rounded=0;orthogonalLoop=1;jettySize=auto;html=1;exitX=1;exitY=0.5;exitDx=0;exitDy=0;entryX=0;entryY=0.5;entryDx=0;entryDy=0;" parent="1" source="mUxfSGTV0tOqRw0Oa9tG-1" target="mUxfSGTV0tOqRw0Oa9tG-4" edge="1">
          <mxGeometry relative="1" as="geometry" />
        </mxCell>
        <mxCell id="mUxfSGTV0tOqRw0Oa9tG-18" style="edgeStyle=orthogonalEdgeStyle;rounded=0;orthogonalLoop=1;jettySize=auto;html=1;exitX=1;exitY=0.5;exitDx=0;exitDy=0;entryX=0;entryY=0.5;entryDx=0;entryDy=0;" parent="1" source="mUxfSGTV0tOqRw0Oa9tG-1" target="mUxfSGTV0tOqRw0Oa9tG-6" edge="1">
          <mxGeometry relative="1" as="geometry" />
        </mxCell>
        <mxCell id="mUxfSGTV0tOqRw0Oa9tG-1" value="&lt;div style=&quot;color: #383a42;background-color: #f5f5f5;font-family: Consolas, &#39;Courier New&#39;, monospace;font-weight: normal;font-size: 14px;line-height: 19px;white-space: pre;&quot;&gt;&lt;div&gt;&lt;span style=&quot;color: #4078f2;&quot;&gt;isp_poll_create&lt;/span&gt;&lt;/div&gt;&lt;/div&gt;" style="text;whiteSpace=wrap;html=1;" parent="1" vertex="1">
          <mxGeometry x="158.25" y="1670" width="130" height="30" as="geometry" />
        </mxCell>
        <mxCell id="mUxfSGTV0tOqRw0Oa9tG-4" value="&lt;div style=&quot;background-color: rgb(245, 245, 245); font-family: Consolas, &amp;quot;Courier New&amp;quot;, monospace; font-weight: normal; font-size: 14px; line-height: 19px; white-space: pre;&quot;&gt;&lt;div style=&quot;&quot;&gt;&lt;span style=&quot;color: rgb(228, 86, 73);&quot;&gt;p&lt;/span&gt;&lt;span style=&quot;color: rgb(56, 58, 66);&quot;&gt;-&amp;gt;&lt;/span&gt;&lt;span style=&quot;color: rgb(228, 86, 73);&quot;&gt;efd&lt;/span&gt;&lt;span style=&quot;color: rgb(56, 58, 66);&quot;&gt; &lt;/span&gt;&lt;span style=&quot;color: rgb(56, 58, 66);&quot;&gt;=&lt;/span&gt;&lt;span style=&quot;color: rgb(56, 58, 66);&quot;&gt; &lt;/span&gt;&lt;span&gt;&lt;font style=&quot;color: rgb(0, 204, 0);&quot;&gt;epoll_create1&lt;/font&gt;&lt;/span&gt;&lt;span style=&quot;color: rgb(56, 58, 66);&quot;&gt;(&lt;/span&gt;&lt;span style=&quot;color: rgb(172, 166, 0);&quot;&gt;EPOLL_CLOEXEC&lt;/span&gt;&lt;span style=&quot;color: rgb(56, 58, 66);&quot;&gt;);&lt;/span&gt;&lt;/div&gt;&lt;/div&gt;" style="text;whiteSpace=wrap;html=1;" parent="1" vertex="1">
          <mxGeometry x="338.25" y="1570" width="300" height="30" as="geometry" />
        </mxCell>
        <mxCell id="mUxfSGTV0tOqRw0Oa9tG-47" style="edgeStyle=orthogonalEdgeStyle;rounded=0;orthogonalLoop=1;jettySize=auto;html=1;exitX=1;exitY=0.5;exitDx=0;exitDy=0;entryX=0;entryY=0.5;entryDx=0;entryDy=0;" parent="1" source="mUxfSGTV0tOqRw0Oa9tG-6" target="mUxfSGTV0tOqRw0Oa9tG-42" edge="1">
          <mxGeometry relative="1" as="geometry" />
        </mxCell>
        <mxCell id="mUxfSGTV0tOqRw0Oa9tG-48" style="edgeStyle=orthogonalEdgeStyle;rounded=0;orthogonalLoop=1;jettySize=auto;html=1;exitX=1;exitY=0.5;exitDx=0;exitDy=0;entryX=0;entryY=0.5;entryDx=0;entryDy=0;" parent="1" source="mUxfSGTV0tOqRw0Oa9tG-6" target="mUxfSGTV0tOqRw0Oa9tG-44" edge="1">
          <mxGeometry relative="1" as="geometry" />
        </mxCell>
        <mxCell id="mUxfSGTV0tOqRw0Oa9tG-49" style="edgeStyle=orthogonalEdgeStyle;rounded=0;orthogonalLoop=1;jettySize=auto;html=1;exitX=1;exitY=0.5;exitDx=0;exitDy=0;entryX=0;entryY=0.5;entryDx=0;entryDy=0;" parent="1" source="mUxfSGTV0tOqRw0Oa9tG-6" target="mUxfSGTV0tOqRw0Oa9tG-45" edge="1">
          <mxGeometry relative="1" as="geometry" />
        </mxCell>
        <mxCell id="mUxfSGTV0tOqRw0Oa9tG-6" value="&lt;div style=&quot;color: rgb(56, 58, 66); background-color: rgb(245, 245, 245); font-family: Consolas, &amp;quot;Courier New&amp;quot;, monospace; font-weight: normal; font-size: 14px; line-height: 19px; white-space: pre;&quot;&gt;&lt;div style=&quot;line-height: 19px;&quot;&gt;&lt;span style=&quot;color: #4078f2;&quot;&gt;poll_trig_init&lt;/span&gt;&lt;/div&gt;&lt;/div&gt;" style="text;whiteSpace=wrap;html=1;" parent="1" vertex="1">
          <mxGeometry x="328.25" y="1670" width="120" height="30" as="geometry" />
        </mxCell>
        <mxCell id="mUxfSGTV0tOqRw0Oa9tG-20" value="" style="edgeStyle=orthogonalEdgeStyle;rounded=0;orthogonalLoop=1;jettySize=auto;html=1;" parent="1" source="mUxfSGTV0tOqRw0Oa9tG-15" target="mUxfSGTV0tOqRw0Oa9tG-19" edge="1">
          <mxGeometry relative="1" as="geometry" />
        </mxCell>
        <mxCell id="mUxfSGTV0tOqRw0Oa9tG-15" value="&lt;div style=&quot;color: #383a42;background-color: #f5f5f5;font-family: Consolas, &#39;Courier New&#39;, monospace;font-weight: normal;font-size: 14px;line-height: 19px;white-space: pre;&quot;&gt;&lt;div&gt;&lt;span style=&quot;color: #4078f2;&quot;&gt;isp_poll_loop_run&lt;/span&gt;&lt;/div&gt;&lt;/div&gt;" style="text;whiteSpace=wrap;html=1;" parent="1" vertex="1">
          <mxGeometry x="167.07" y="2670" width="140" height="30" as="geometry" />
        </mxCell>
        <mxCell id="mUxfSGTV0tOqRw0Oa9tG-19" value="&lt;div style=&quot;color: #383a42;background-color: #f5f5f5;font-family: Consolas, &#39;Courier New&#39;, monospace;font-weight: normal;font-size: 14px;line-height: 19px;white-space: pre;&quot;&gt;&lt;div&gt;&lt;span style=&quot;color: #4078f2;&quot;&gt;poll_run&lt;/span&gt;&lt;/div&gt;&lt;/div&gt;" style="text;whiteSpace=wrap;html=1;" parent="1" vertex="1">
          <mxGeometry x="327.07" y="2670" width="70" height="30" as="geometry" />
        </mxCell>
        <mxCell id="mUxfSGTV0tOqRw0Oa9tG-105" style="edgeStyle=orthogonalEdgeStyle;rounded=0;orthogonalLoop=1;jettySize=auto;html=1;exitX=0.5;exitY=1;exitDx=0;exitDy=0;entryX=0.5;entryY=0;entryDx=0;entryDy=0;" parent="1" source="mUxfSGTV0tOqRw0Oa9tG-29" target="mUxfSGTV0tOqRw0Oa9tG-102" edge="1">
          <mxGeometry relative="1" as="geometry" />
        </mxCell>
        <mxCell id="mUxfSGTV0tOqRw0Oa9tG-29" value="&lt;div style=&quot;background-color: rgb(245, 245, 245); font-family: Consolas, &amp;quot;Courier New&amp;quot;, monospace; font-weight: normal; font-size: 14px; line-height: 19px; white-space: pre;&quot;&gt;&lt;div style=&quot;&quot;&gt;&lt;span&gt;&lt;font style=&quot;color: rgb(0, 204, 0);&quot;&gt;epoll_wait&lt;/font&gt;&lt;/span&gt;&lt;/div&gt;&lt;/div&gt;" style="text;whiteSpace=wrap;html=1;" parent="1" vertex="1">
          <mxGeometry x="543.5" y="1900" width="80" height="30" as="geometry" />
        </mxCell>
        <mxCell id="mUxfSGTV0tOqRw0Oa9tG-36" style="edgeStyle=orthogonalEdgeStyle;rounded=0;orthogonalLoop=1;jettySize=auto;html=1;exitX=0.5;exitY=1;exitDx=0;exitDy=0;entryX=0.5;entryY=0;entryDx=0;entryDy=0;" parent="1" source="mUxfSGTV0tOqRw0Oa9tG-31" target="mUxfSGTV0tOqRw0Oa9tG-32" edge="1">
          <mxGeometry relative="1" as="geometry" />
        </mxCell>
        <mxCell id="mUxfSGTV0tOqRw0Oa9tG-31" value="&lt;div style=&quot;color: #383a42;background-color: #f5f5f5;font-family: Consolas, &#39;Courier New&#39;, monospace;font-weight: normal;font-size: 14px;line-height: 19px;white-space: pre;&quot;&gt;&lt;div&gt;&lt;span style=&quot;color: #4078f2;&quot;&gt;poll_trig&lt;/span&gt;&lt;/div&gt;&lt;/div&gt;" style="text;whiteSpace=wrap;html=1;" parent="1" vertex="1">
          <mxGeometry x="910" y="1875" width="80" height="35" as="geometry" />
        </mxCell>
        <mxCell id="mUxfSGTV0tOqRw0Oa9tG-32" value="&lt;div style=&quot;color: #383a42;background-color: #f5f5f5;font-family: Consolas, &#39;Courier New&#39;, monospace;font-weight: normal;font-size: 14px;line-height: 19px;white-space: pre;&quot;&gt;&lt;div&gt;&lt;span style=&quot;color: #4078f2;&quot;&gt;poll_write_eventfd&lt;/span&gt;&lt;span style=&quot;color: #383a42;&quot;&gt;(&lt;/span&gt;&lt;span style=&quot;color: #4078f2;&quot;&gt;isp_io_fd&lt;/span&gt;&lt;span style=&quot;color: #383a42;&quot;&gt;(&lt;/span&gt;&lt;span style=&quot;color: #383a42;&quot;&gt;&amp;amp;&lt;/span&gt;&lt;span style=&quot;color: #00afaf;&quot;&gt;p&lt;/span&gt;&lt;span style=&quot;color: #383a42;&quot;&gt;-&amp;gt;&lt;/span&gt;&lt;span style=&quot;color: #e45649;&quot;&gt;trig&lt;/span&gt;&lt;span style=&quot;color: #383a42;&quot;&gt;));&lt;/span&gt;&lt;/div&gt;&lt;/div&gt;" style="text;whiteSpace=wrap;html=1;" parent="1" vertex="1">
          <mxGeometry x="790" y="1935" width="320" height="35" as="geometry" />
        </mxCell>
        <mxCell id="mUxfSGTV0tOqRw0Oa9tG-37" value="" style="curved=1;endArrow=classic;html=1;rounded=0;entryX=1;entryY=0.5;entryDx=0;entryDy=0;" parent="1" target="mUxfSGTV0tOqRw0Oa9tG-29" edge="1">
          <mxGeometry width="50" height="50" relative="1" as="geometry">
            <mxPoint x="900" y="1890" as="sourcePoint" />
            <mxPoint x="620" y="1950" as="targetPoint" />
            <Array as="points">
              <mxPoint x="840" y="1910" />
              <mxPoint x="760" y="1900" />
            </Array>
          </mxGeometry>
        </mxCell>
        <mxCell id="mUxfSGTV0tOqRw0Oa9tG-38" value="" style="curved=1;endArrow=classic;html=1;rounded=0;entryX=0.558;entryY=1.139;entryDx=0;entryDy=0;entryPerimeter=0;exitX=0.75;exitY=0;exitDx=0;exitDy=0;" parent="1" source="mUxfSGTV0tOqRw0Oa9tG-102" target="mUxfSGTV0tOqRw0Oa9tG-46" edge="1">
          <mxGeometry width="50" height="50" relative="1" as="geometry">
            <mxPoint x="620" y="1940" as="sourcePoint" />
            <mxPoint x="840" y="1710" as="targetPoint" />
            <Array as="points">
              <mxPoint x="670" y="1870" />
              <mxPoint x="680" y="1810" />
              <mxPoint x="700" y="1760" />
            </Array>
          </mxGeometry>
        </mxCell>
        <mxCell id="mUxfSGTV0tOqRw0Oa9tG-39" value="唤醒" style="text;html=1;align=center;verticalAlign=middle;whiteSpace=wrap;rounded=0;" parent="1" vertex="1">
          <mxGeometry x="730" y="1880" width="60" height="30" as="geometry" />
        </mxCell>
        <mxCell id="mUxfSGTV0tOqRw0Oa9tG-40" value="进入回调" style="text;html=1;align=center;verticalAlign=middle;whiteSpace=wrap;rounded=0;" parent="1" vertex="1">
          <mxGeometry x="623.5" y="1780" width="60" height="30" as="geometry" />
        </mxCell>
        <mxCell id="mUxfSGTV0tOqRw0Oa9tG-42" value="&lt;div style=&quot;background-color: rgb(245, 245, 245); font-family: Consolas, &amp;quot;Courier New&amp;quot;, monospace; font-weight: normal; font-size: 14px; line-height: 19px; white-space: pre;&quot;&gt;&lt;div style=&quot;&quot;&gt;&lt;span&gt;&lt;font style=&quot;color: rgb(0, 204, 0);&quot;&gt;eventfd&lt;/font&gt;&lt;/span&gt;&lt;span style=&quot;color: rgb(56, 58, 66);&quot;&gt;(&lt;/span&gt;&lt;span style=&quot;color: rgb(152, 104, 1);&quot;&gt;0&lt;/span&gt;&lt;span style=&quot;color: rgb(56, 58, 66);&quot;&gt;, &lt;/span&gt;&lt;span style=&quot;color: rgb(172, 166, 0);&quot;&gt;EFD_CLOEXEC&lt;/span&gt;&lt;span style=&quot;color: rgb(56, 58, 66);&quot;&gt; &lt;/span&gt;&lt;span style=&quot;color: rgb(56, 58, 66);&quot;&gt;|&lt;/span&gt;&lt;span style=&quot;color: rgb(56, 58, 66);&quot;&gt; &lt;/span&gt;&lt;span style=&quot;color: rgb(172, 166, 0);&quot;&gt;EFD_NONBLOCK&lt;/span&gt;&lt;span style=&quot;color: rgb(56, 58, 66);&quot;&gt;);&lt;/span&gt;&lt;/div&gt;&lt;/div&gt;" style="text;whiteSpace=wrap;html=1;" parent="1" vertex="1">
          <mxGeometry x="498.25" y="1630" width="303.5" height="30" as="geometry" />
        </mxCell>
        <mxCell id="mUxfSGTV0tOqRw0Oa9tG-43" value="" style="edgeStyle=orthogonalEdgeStyle;rounded=0;orthogonalLoop=1;jettySize=auto;html=1;" parent="1" source="mUxfSGTV0tOqRw0Oa9tG-44" target="mUxfSGTV0tOqRw0Oa9tG-46" edge="1">
          <mxGeometry relative="1" as="geometry" />
        </mxCell>
        <mxCell id="mUxfSGTV0tOqRw0Oa9tG-44" value="&lt;div style=&quot;color: #383a42;background-color: #f5f5f5;font-family: Consolas, &#39;Courier New&#39;, monospace;font-weight: normal;font-size: 14px;line-height: 19px;white-space: pre;&quot;&gt;&lt;div&gt;&lt;span style=&quot;color: #4078f2;&quot;&gt;isp_io_init&lt;/span&gt;&lt;/div&gt;&lt;/div&gt;" style="text;whiteSpace=wrap;html=1;" parent="1" vertex="1">
          <mxGeometry x="498.25" y="1670" width="93.5" height="30" as="geometry" />
        </mxCell>
        <mxCell id="mUxfSGTV0tOqRw0Oa9tG-45" value="&lt;div style=&quot;color: #383a42;background-color: #f5f5f5;font-family: Consolas, &#39;Courier New&#39;, monospace;font-weight: normal;font-size: 14px;line-height: 19px;white-space: pre;&quot;&gt;&lt;div&gt;&lt;span style=&quot;color: #4078f2;&quot;&gt;isp_io_event_add&lt;/span&gt;&lt;/div&gt;&lt;/div&gt;" style="text;whiteSpace=wrap;html=1;" parent="1" vertex="1">
          <mxGeometry x="498.25" y="1710" width="133.5" height="30" as="geometry" />
        </mxCell>
        <mxCell id="mUxfSGTV0tOqRw0Oa9tG-46" value="&lt;div style=&quot;color: rgb(56, 58, 66); background-color: rgb(245, 245, 245); font-family: Consolas, &amp;quot;Courier New&amp;quot;, monospace; font-weight: normal; font-size: 14px; line-height: 19px; white-space: pre;&quot;&gt;&lt;div&gt;&lt;span style=&quot;color: rgb(64, 120, 242);&quot;&gt;io-&amp;gt;cb = &lt;/span&gt;&lt;span style=&quot;color: rgb(64, 120, 242); background-color: light-dark(rgb(245, 245, 245), rgb(26, 26, 26));&quot;&gt;poll_trig_read&lt;/span&gt;&lt;/div&gt;&lt;/div&gt;" style="text;whiteSpace=wrap;html=1;" parent="1" vertex="1">
          <mxGeometry x="638" y="1670" width="173.75" height="30" as="geometry" />
        </mxCell>
        <mxCell id="mUxfSGTV0tOqRw0Oa9tG-50" value="&lt;h2&gt;主线程&lt;/h2&gt;" style="text;html=1;align=center;verticalAlign=middle;whiteSpace=wrap;rounded=0;" parent="1" vertex="1">
          <mxGeometry x="475.87" y="1870" width="60" height="30" as="geometry" />
        </mxCell>
        <mxCell id="mUxfSGTV0tOqRw0Oa9tG-51" value="&lt;h2&gt;其他线程&lt;/h2&gt;" style="text;html=1;align=center;verticalAlign=middle;whiteSpace=wrap;rounded=0;" parent="1" vertex="1">
          <mxGeometry x="895" y="1830" width="90" height="30" as="geometry" />
        </mxCell>
        <mxCell id="mUxfSGTV0tOqRw0Oa9tG-56" style="edgeStyle=orthogonalEdgeStyle;rounded=0;orthogonalLoop=1;jettySize=auto;html=1;exitX=1;exitY=0.5;exitDx=0;exitDy=0;entryX=0;entryY=0.5;entryDx=0;entryDy=0;" parent="1" source="mUxfSGTV0tOqRw0Oa9tG-59" target="mUxfSGTV0tOqRw0Oa9tG-60" edge="1">
          <mxGeometry relative="1" as="geometry" />
        </mxCell>
        <mxCell id="mUxfSGTV0tOqRw0Oa9tG-57" style="edgeStyle=orthogonalEdgeStyle;rounded=0;orthogonalLoop=1;jettySize=auto;html=1;exitX=1;exitY=0.5;exitDx=0;exitDy=0;entryX=0;entryY=0.5;entryDx=0;entryDy=0;" parent="1" source="mUxfSGTV0tOqRw0Oa9tG-59" target="mUxfSGTV0tOqRw0Oa9tG-62" edge="1">
          <mxGeometry relative="1" as="geometry" />
        </mxCell>
        <mxCell id="mUxfSGTV0tOqRw0Oa9tG-58" style="edgeStyle=orthogonalEdgeStyle;rounded=0;orthogonalLoop=1;jettySize=auto;html=1;exitX=1;exitY=0.5;exitDx=0;exitDy=0;entryX=0;entryY=0.5;entryDx=0;entryDy=0;" parent="1" source="mUxfSGTV0tOqRw0Oa9tG-59" target="mUxfSGTV0tOqRw0Oa9tG-63" edge="1">
          <mxGeometry relative="1" as="geometry" />
        </mxCell>
        <mxCell id="mUxfSGTV0tOqRw0Oa9tG-59" value="&lt;div style=&quot;color: #383a42;background-color: #f5f5f5;font-family: Consolas, &#39;Courier New&#39;, monospace;font-weight: normal;font-size: 14px;line-height: 19px;white-space: pre;&quot;&gt;&lt;div&gt;&lt;span style=&quot;color: #4078f2;&quot;&gt;poll_wq_init&lt;/span&gt;&lt;/div&gt;&lt;/div&gt;" style="text;whiteSpace=wrap;html=1;" parent="1" vertex="1">
          <mxGeometry x="1170" y="1660" width="100" height="30" as="geometry" />
        </mxCell>
        <mxCell id="mUxfSGTV0tOqRw0Oa9tG-60" value="&lt;div style=&quot;background-color: rgb(245, 245, 245); font-family: Consolas, &amp;quot;Courier New&amp;quot;, monospace; font-weight: normal; font-size: 14px; line-height: 19px; white-space: pre;&quot;&gt;&lt;div style=&quot;&quot;&gt;&lt;span&gt;&lt;font style=&quot;color: rgb(0, 204, 0);&quot;&gt;eventfd&lt;/font&gt;&lt;/span&gt;&lt;span style=&quot;color: rgb(56, 58, 66);&quot;&gt;(&lt;/span&gt;&lt;span style=&quot;color: rgb(152, 104, 1);&quot;&gt;0&lt;/span&gt;&lt;span style=&quot;color: rgb(56, 58, 66);&quot;&gt;, &lt;/span&gt;&lt;span style=&quot;color: rgb(172, 166, 0);&quot;&gt;EFD_CLOEXEC&lt;/span&gt;&lt;span style=&quot;color: rgb(56, 58, 66);&quot;&gt; &lt;/span&gt;&lt;span style=&quot;color: rgb(56, 58, 66);&quot;&gt;|&lt;/span&gt;&lt;span style=&quot;color: rgb(56, 58, 66);&quot;&gt; &lt;/span&gt;&lt;span style=&quot;color: rgb(172, 166, 0);&quot;&gt;EFD_NONBLOCK&lt;/span&gt;&lt;span style=&quot;color: rgb(56, 58, 66);&quot;&gt;);&lt;/span&gt;&lt;/div&gt;&lt;/div&gt;" style="text;whiteSpace=wrap;html=1;" parent="1" vertex="1">
          <mxGeometry x="1336.5" y="1620" width="303.5" height="30" as="geometry" />
        </mxCell>
        <mxCell id="mUxfSGTV0tOqRw0Oa9tG-61" value="" style="edgeStyle=orthogonalEdgeStyle;rounded=0;orthogonalLoop=1;jettySize=auto;html=1;" parent="1" source="mUxfSGTV0tOqRw0Oa9tG-62" target="mUxfSGTV0tOqRw0Oa9tG-64" edge="1">
          <mxGeometry relative="1" as="geometry" />
        </mxCell>
        <mxCell id="mUxfSGTV0tOqRw0Oa9tG-62" value="&lt;div style=&quot;color: #383a42;background-color: #f5f5f5;font-family: Consolas, &#39;Courier New&#39;, monospace;font-weight: normal;font-size: 14px;line-height: 19px;white-space: pre;&quot;&gt;&lt;div&gt;&lt;span style=&quot;color: #4078f2;&quot;&gt;isp_io_init&lt;/span&gt;&lt;/div&gt;&lt;/div&gt;" style="text;whiteSpace=wrap;html=1;" parent="1" vertex="1">
          <mxGeometry x="1336.5" y="1660" width="93.5" height="30" as="geometry" />
        </mxCell>
        <mxCell id="mUxfSGTV0tOqRw0Oa9tG-63" value="&lt;div style=&quot;color: #383a42;background-color: #f5f5f5;font-family: Consolas, &#39;Courier New&#39;, monospace;font-weight: normal;font-size: 14px;line-height: 19px;white-space: pre;&quot;&gt;&lt;div&gt;&lt;span style=&quot;color: #4078f2;&quot;&gt;isp_io_event_add&lt;/span&gt;&lt;/div&gt;&lt;/div&gt;" style="text;whiteSpace=wrap;html=1;" parent="1" vertex="1">
          <mxGeometry x="1336.5" y="1700" width="133.5" height="30" as="geometry" />
        </mxCell>
        <mxCell id="mUxfSGTV0tOqRw0Oa9tG-64" value="&lt;div style=&quot;color: rgb(56, 58, 66); background-color: rgb(245, 245, 245); font-family: Consolas, &amp;quot;Courier New&amp;quot;, monospace; font-weight: normal; font-size: 14px; line-height: 19px; white-space: pre;&quot;&gt;&lt;div&gt;&lt;span style=&quot;color: rgb(64, 120, 242);&quot;&gt;io-&amp;gt;cb = poll_wq_read&lt;/span&gt;&lt;/div&gt;&lt;/div&gt;" style="text;whiteSpace=wrap;html=1;" parent="1" vertex="1">
          <mxGeometry x="1476.25" y="1660" width="173.75" height="30" as="geometry" />
        </mxCell>
        <mxCell id="mUxfSGTV0tOqRw0Oa9tG-88" value="" style="edgeStyle=orthogonalEdgeStyle;rounded=0;orthogonalLoop=1;jettySize=auto;html=1;" parent="1" source="mUxfSGTV0tOqRw0Oa9tG-66" target="mUxfSGTV0tOqRw0Oa9tG-67" edge="1">
          <mxGeometry relative="1" as="geometry" />
        </mxCell>
        <mxCell id="mUxfSGTV0tOqRw0Oa9tG-90" style="edgeStyle=orthogonalEdgeStyle;rounded=0;orthogonalLoop=1;jettySize=auto;html=1;exitX=1;exitY=0.5;exitDx=0;exitDy=0;entryX=0;entryY=0.5;entryDx=0;entryDy=0;" parent="1" source="mUxfSGTV0tOqRw0Oa9tG-66" target="mUxfSGTV0tOqRw0Oa9tG-89" edge="1">
          <mxGeometry relative="1" as="geometry" />
        </mxCell>
        <mxCell id="mUxfSGTV0tOqRw0Oa9tG-66" value="&lt;div style=&quot;color: #383a42;background-color: #f5f5f5;font-family: Consolas, &#39;Courier New&#39;, monospace;font-weight: normal;font-size: 14px;line-height: 19px;white-space: pre;&quot;&gt;&lt;div&gt;&lt;span style=&quot;color: #4078f2;&quot;&gt;isp_top_poll_add&lt;/span&gt;&lt;/div&gt;&lt;/div&gt;" style="text;whiteSpace=wrap;html=1;" parent="1" vertex="1">
          <mxGeometry x="158.25" y="2240" width="130" height="30" as="geometry" />
        </mxCell>
        <mxCell id="mUxfSGTV0tOqRw0Oa9tG-92" style="edgeStyle=orthogonalEdgeStyle;rounded=0;orthogonalLoop=1;jettySize=auto;html=1;exitX=1;exitY=0.5;exitDx=0;exitDy=0;entryX=0;entryY=0.5;entryDx=0;entryDy=0;" parent="1" source="mUxfSGTV0tOqRw0Oa9tG-67" target="mUxfSGTV0tOqRw0Oa9tG-91" edge="1">
          <mxGeometry relative="1" as="geometry" />
        </mxCell>
        <mxCell id="mUxfSGTV0tOqRw0Oa9tG-67" value="&lt;div style=&quot;color: #383a42;background-color: #f5f5f5;font-family: Consolas, &#39;Courier New&#39;, monospace;font-weight: normal;font-size: 14px;line-height: 19px;white-space: pre;&quot;&gt;&lt;div&gt;&lt;span style=&quot;color: #4078f2;&quot;&gt;isp_driver_stream_add&lt;/span&gt;&lt;/div&gt;&lt;/div&gt;" style="text;whiteSpace=wrap;html=1;" parent="1" vertex="1">
          <mxGeometry x="340" y="2220" width="171.75" height="30" as="geometry" />
        </mxCell>
        <mxCell id="mUxfSGTV0tOqRw0Oa9tG-68" value="&lt;h2&gt;工作线程&lt;/h2&gt;" style="text;html=1;align=center;verticalAlign=middle;whiteSpace=wrap;rounded=0;" parent="1" vertex="1">
          <mxGeometry x="1765" y="1710" width="90" height="30" as="geometry" />
        </mxCell>
        <mxCell id="mUxfSGTV0tOqRw0Oa9tG-70" value="&lt;h2&gt;初始化&lt;/h2&gt;" style="text;html=1;align=center;verticalAlign=middle;whiteSpace=wrap;rounded=0;" parent="1" vertex="1">
          <mxGeometry x="90" y="1630" width="60" height="30" as="geometry" />
        </mxCell>
        <mxCell id="mUxfSGTV0tOqRw0Oa9tG-71" value="&lt;h2&gt;初始化&lt;/h2&gt;" style="text;html=1;align=center;verticalAlign=middle;whiteSpace=wrap;rounded=0;" parent="1" vertex="1">
          <mxGeometry x="1120" y="1610" width="60" height="30" as="geometry" />
        </mxCell>
        <mxCell id="mUxfSGTV0tOqRw0Oa9tG-74" style="edgeStyle=orthogonalEdgeStyle;rounded=0;orthogonalLoop=1;jettySize=auto;html=1;exitX=0.5;exitY=1;exitDx=0;exitDy=0;entryX=0.5;entryY=0;entryDx=0;entryDy=0;" parent="1" source="mUxfSGTV0tOqRw0Oa9tG-72" target="mUxfSGTV0tOqRw0Oa9tG-73" edge="1">
          <mxGeometry relative="1" as="geometry" />
        </mxCell>
        <mxCell id="mUxfSGTV0tOqRw0Oa9tG-72" value="&lt;div style=&quot;color: #383a42;background-color: #f5f5f5;font-family: Consolas, &#39;Courier New&#39;, monospace;font-weight: normal;font-size: 14px;line-height: 19px;white-space: pre;&quot;&gt;&lt;div&gt;&lt;span style=&quot;color: #aca600;&quot;&gt;list_insert_tail&lt;/span&gt;&lt;span style=&quot;color: #383a42;&quot;&gt;(&lt;/span&gt;&lt;span style=&quot;color: #383a42;&quot;&gt;&amp;amp;&lt;/span&gt;&lt;span style=&quot;color: #e45649;&quot;&gt;wq&lt;/span&gt;&lt;span style=&quot;color: #383a42;&quot;&gt;-&amp;gt;&lt;/span&gt;&lt;span style=&quot;color: #e45649;&quot;&gt;done&lt;/span&gt;&lt;span style=&quot;color: #383a42;&quot;&gt;, &lt;/span&gt;&lt;span style=&quot;color: #383a42;&quot;&gt;&amp;amp;&lt;/span&gt;&lt;span style=&quot;color: #e45649;&quot;&gt;handle&lt;/span&gt;&lt;span style=&quot;color: #383a42;&quot;&gt;-&amp;gt;&lt;/span&gt;&lt;span style=&quot;color: #e45649;&quot;&gt;list&lt;/span&gt;&lt;span style=&quot;color: #383a42;&quot;&gt;);&lt;/span&gt;&lt;/div&gt;&lt;/div&gt;" style="text;whiteSpace=wrap;html=1;" parent="1" vertex="1">
          <mxGeometry x="1640" y="1930" width="340" height="30" as="geometry" />
        </mxCell>
        <mxCell id="mUxfSGTV0tOqRw0Oa9tG-73" value="&lt;div style=&quot;color: #383a42;background-color: #f5f5f5;font-family: Consolas, &#39;Courier New&#39;, monospace;font-weight: normal;font-size: 14px;line-height: 19px;white-space: pre;&quot;&gt;&lt;div&gt;&lt;span style=&quot;color: #4078f2;&quot;&gt;poll_write_eventfd&lt;/span&gt;&lt;span style=&quot;color: #383a42;&quot;&gt;(&lt;/span&gt;&lt;span style=&quot;color: #4078f2;&quot;&gt;isp_io_fd&lt;/span&gt;&lt;span style=&quot;color: #383a42;&quot;&gt;(&lt;/span&gt;&lt;span style=&quot;color: #383a42;&quot;&gt;&amp;amp;&lt;/span&gt;&lt;span style=&quot;color: #e45649;&quot;&gt;wq&lt;/span&gt;&lt;span style=&quot;color: #383a42;&quot;&gt;-&amp;gt;&lt;/span&gt;&lt;span style=&quot;color: #e45649;&quot;&gt;wq_io&lt;/span&gt;&lt;span style=&quot;color: #383a42;&quot;&gt;));&lt;/span&gt;&lt;/div&gt;&lt;/div&gt;" style="text;whiteSpace=wrap;html=1;" parent="1" vertex="1">
          <mxGeometry x="1645" y="1980" width="330" height="30" as="geometry" />
        </mxCell>
        <mxCell id="mUxfSGTV0tOqRw0Oa9tG-75" value="&lt;h2&gt;主线程&lt;/h2&gt;" style="text;html=1;align=center;verticalAlign=middle;whiteSpace=wrap;rounded=0;" parent="1" vertex="1">
          <mxGeometry x="1315" y="1870" width="60" height="30" as="geometry" />
        </mxCell>
        <mxCell id="mUxfSGTV0tOqRw0Oa9tG-78" value="&lt;div style=&quot;background-color: rgb(245, 245, 245); font-family: Consolas, &amp;quot;Courier New&amp;quot;, monospace; font-weight: normal; font-size: 14px; line-height: 19px; white-space: pre;&quot;&gt;&lt;div style=&quot;&quot;&gt;&lt;span&gt;&lt;font style=&quot;color: rgb(0, 204, 0);&quot;&gt;epoll_wait&lt;/font&gt;&lt;/span&gt;&lt;/div&gt;&lt;/div&gt;" style="text;whiteSpace=wrap;html=1;" parent="1" vertex="1">
          <mxGeometry x="1390" y="1900" width="80" height="30" as="geometry" />
        </mxCell>
        <mxCell id="mUxfSGTV0tOqRw0Oa9tG-81" value="" style="curved=1;endArrow=classic;html=1;rounded=0;exitX=0;exitY=0.25;exitDx=0;exitDy=0;" parent="1" source="mUxfSGTV0tOqRw0Oa9tG-73" edge="1">
          <mxGeometry width="50" height="50" relative="1" as="geometry">
            <mxPoint x="1760" y="1845" as="sourcePoint" />
            <mxPoint x="1480" y="1905" as="targetPoint" />
            <Array as="points">
              <mxPoint x="1590" y="1920" />
              <mxPoint x="1520" y="1910" />
            </Array>
          </mxGeometry>
        </mxCell>
        <mxCell id="mUxfSGTV0tOqRw0Oa9tG-82" value="唤醒" style="text;html=1;align=center;verticalAlign=middle;whiteSpace=wrap;rounded=0;" parent="1" vertex="1">
          <mxGeometry x="1533.13" y="1880" width="60" height="30" as="geometry" />
        </mxCell>
        <mxCell id="mUxfSGTV0tOqRw0Oa9tG-83" value="" style="curved=1;endArrow=classic;html=1;rounded=0;entryX=0.558;entryY=1.139;entryDx=0;entryDy=0;entryPerimeter=0;" parent="1" edge="1">
          <mxGeometry width="50" height="50" relative="1" as="geometry">
            <mxPoint x="1480" y="1890" as="sourcePoint" />
            <mxPoint x="1575" y="1690" as="targetPoint" />
            <Array as="points">
              <mxPoint x="1520" y="1796" />
            </Array>
          </mxGeometry>
        </mxCell>
        <mxCell id="mUxfSGTV0tOqRw0Oa9tG-84" value="进入回调" style="text;html=1;align=center;verticalAlign=middle;whiteSpace=wrap;rounded=0;" parent="1" vertex="1">
          <mxGeometry x="1460" y="1786" width="60" height="30" as="geometry" />
        </mxCell>
        <mxCell id="mUxfSGTV0tOqRw0Oa9tG-133" style="edgeStyle=orthogonalEdgeStyle;rounded=0;orthogonalLoop=1;jettySize=auto;html=1;exitX=0.5;exitY=1;exitDx=0;exitDy=0;entryX=0.5;entryY=0;entryDx=0;entryDy=0;" parent="1" source="mUxfSGTV0tOqRw0Oa9tG-85" target="mUxfSGTV0tOqRw0Oa9tG-132" edge="1">
          <mxGeometry relative="1" as="geometry" />
        </mxCell>
        <mxCell id="mUxfSGTV0tOqRw0Oa9tG-85" value="&lt;div style=&quot;color: rgb(56, 58, 66); background-color: rgb(245, 245, 245); font-family: Consolas, &amp;quot;Courier New&amp;quot;, monospace; font-weight: normal; line-height: 16px; white-space: pre;&quot;&gt;&lt;div style=&quot;&quot;&gt;&lt;span style=&quot;color: rgb(64, 120, 242);&quot;&gt;&lt;font style=&quot;font-size: 14px;&quot;&gt;poll_wq_worker&lt;/font&gt;&lt;/span&gt;&lt;/div&gt;&lt;/div&gt;" style="text;whiteSpace=wrap;html=1;" parent="1" vertex="1">
          <mxGeometry x="1750" y="1816" width="120" height="30" as="geometry" />
        </mxCell>
        <mxCell id="mUxfSGTV0tOqRw0Oa9tG-89" value="&lt;div style=&quot;color: #383a42;background-color: #f5f5f5;font-family: Consolas, &#39;Courier New&#39;, monospace;font-weight: normal;font-size: 14px;line-height: 19px;white-space: pre;&quot;&gt;&lt;div&gt;&lt;span style=&quot;color: #4078f2;&quot;&gt;isp_uds_stream_alloc&lt;/span&gt;&lt;/div&gt;&lt;/div&gt;" style="text;whiteSpace=wrap;html=1;" parent="1" vertex="1">
          <mxGeometry x="340" y="2280" width="160" height="30" as="geometry" />
        </mxCell>
        <mxCell id="mUxfSGTV0tOqRw0Oa9tG-94" value="" style="edgeStyle=orthogonalEdgeStyle;rounded=0;orthogonalLoop=1;jettySize=auto;html=1;" parent="1" source="mUxfSGTV0tOqRw0Oa9tG-91" target="mUxfSGTV0tOqRw0Oa9tG-93" edge="1">
          <mxGeometry relative="1" as="geometry" />
        </mxCell>
        <mxCell id="mUxfSGTV0tOqRw0Oa9tG-91" value="&lt;div style=&quot;color: #383a42;background-color: #f5f5f5;font-family: Consolas, &#39;Courier New&#39;, monospace;font-weight: normal;font-size: 14px;line-height: 19px;white-space: pre;&quot;&gt;&lt;div&gt;&lt;span style=&quot;color: #4078f2;&quot;&gt;isp_stream_client_add&lt;/span&gt;&lt;/div&gt;&lt;/div&gt;" style="text;whiteSpace=wrap;html=1;" parent="1" vertex="1">
          <mxGeometry x="540" y="2220" width="170" height="30" as="geometry" />
        </mxCell>
        <mxCell id="mUxfSGTV0tOqRw0Oa9tG-107" value="" style="edgeStyle=orthogonalEdgeStyle;rounded=0;orthogonalLoop=1;jettySize=auto;html=1;" parent="1" source="mUxfSGTV0tOqRw0Oa9tG-93" target="mUxfSGTV0tOqRw0Oa9tG-106" edge="1">
          <mxGeometry relative="1" as="geometry" />
        </mxCell>
        <mxCell id="mUxfSGTV0tOqRw0Oa9tG-110" style="edgeStyle=orthogonalEdgeStyle;rounded=0;orthogonalLoop=1;jettySize=auto;html=1;exitX=1;exitY=0.5;exitDx=0;exitDy=0;entryX=0;entryY=0.5;entryDx=0;entryDy=0;" parent="1" source="mUxfSGTV0tOqRw0Oa9tG-93" target="mUxfSGTV0tOqRw0Oa9tG-109" edge="1">
          <mxGeometry relative="1" as="geometry" />
        </mxCell>
        <mxCell id="GMMovzZSmzLbaU7FKOHR-3" style="edgeStyle=orthogonalEdgeStyle;rounded=0;orthogonalLoop=1;jettySize=auto;html=1;exitX=0.5;exitY=0;exitDx=0;exitDy=0;entryX=0.5;entryY=1;entryDx=0;entryDy=0;" edge="1" parent="1" source="mUxfSGTV0tOqRw0Oa9tG-93" target="GMMovzZSmzLbaU7FKOHR-2">
          <mxGeometry relative="1" as="geometry" />
        </mxCell>
        <mxCell id="mUxfSGTV0tOqRw0Oa9tG-93" value="&lt;div style=&quot;color: #383a42;background-color: #f5f5f5;font-family: Consolas, &#39;Courier New&#39;, monospace;font-weight: normal;font-size: 14px;line-height: 19px;white-space: pre;&quot;&gt;&lt;div&gt;&lt;span style=&quot;color: #4078f2;&quot;&gt;isp_stream_init&lt;/span&gt;&lt;/div&gt;&lt;/div&gt;" style="text;whiteSpace=wrap;html=1;" parent="1" vertex="1">
          <mxGeometry x="750" y="2220" width="130" height="30" as="geometry" />
        </mxCell>
        <mxCell id="mUxfSGTV0tOqRw0Oa9tG-98" value="" style="edgeStyle=orthogonalEdgeStyle;rounded=0;orthogonalLoop=1;jettySize=auto;html=1;exitX=1;exitY=0.5;exitDx=0;exitDy=0;entryX=0;entryY=0.5;entryDx=0;entryDy=0;" parent="1" source="mUxfSGTV0tOqRw0Oa9tG-19" target="mUxfSGTV0tOqRw0Oa9tG-95" edge="1">
          <mxGeometry relative="1" as="geometry">
            <mxPoint x="397.07" y="2685" as="sourcePoint" />
            <mxPoint x="707.07" y="2555" as="targetPoint" />
          </mxGeometry>
        </mxCell>
        <mxCell id="mUxfSGTV0tOqRw0Oa9tG-100" value="" style="edgeStyle=orthogonalEdgeStyle;rounded=0;orthogonalLoop=1;jettySize=auto;html=1;" parent="1" source="mUxfSGTV0tOqRw0Oa9tG-95" target="mUxfSGTV0tOqRw0Oa9tG-99" edge="1">
          <mxGeometry relative="1" as="geometry" />
        </mxCell>
        <mxCell id="mUxfSGTV0tOqRw0Oa9tG-95" value="&lt;div style=&quot;color: #383a42;background-color: #f5f5f5;font-family: Consolas, &#39;Courier New&#39;, monospace;font-weight: normal;font-size: 14px;line-height: 19px;white-space: pre;&quot;&gt;&lt;div&gt;&lt;span style=&quot;color: #4078f2;&quot;&gt;poll_add_pending_io&lt;/span&gt;&lt;/div&gt;&lt;/div&gt;" style="text;whiteSpace=wrap;html=1;" parent="1" vertex="1">
          <mxGeometry x="428.82" y="2670" width="156.5" height="30" as="geometry" />
        </mxCell>
        <mxCell id="mUxfSGTV0tOqRw0Oa9tG-99" value="&lt;div style=&quot;background-color: rgb(245, 245, 245); font-family: Consolas, &amp;quot;Courier New&amp;quot;, monospace; font-weight: normal; font-size: 14px; line-height: 19px; white-space: pre;&quot;&gt;&lt;div style=&quot;&quot;&gt;&lt;span&gt;&lt;font style=&quot;color: rgb(0, 204, 0);&quot;&gt;epoll_ctl&lt;/font&gt;&lt;/span&gt;&lt;/div&gt;&lt;/div&gt;" style="text;whiteSpace=wrap;html=1;" parent="1" vertex="1">
          <mxGeometry x="622.07" y="2670" width="75" height="30" as="geometry" />
        </mxCell>
        <mxCell id="mUxfSGTV0tOqRw0Oa9tG-101" value="从p-&amp;gt;pendings中取出所有的io_handle&lt;div&gt;加入epoll监听&lt;/div&gt;" style="text;html=1;align=center;verticalAlign=middle;whiteSpace=wrap;rounded=0;" parent="1" vertex="1">
          <mxGeometry x="562.94" y="2630" width="220" height="30" as="geometry" />
        </mxCell>
        <mxCell id="mUxfSGTV0tOqRw0Oa9tG-102" value="&lt;div style=&quot;color: #383a42;background-color: #f5f5f5;font-family: Consolas, &#39;Courier New&#39;, monospace;font-weight: normal;font-size: 14px;line-height: 19px;white-space: pre;&quot;&gt;&lt;div&gt;&lt;span style=&quot;color: #aca600;&quot;&gt;isp_call_op_ret&lt;/span&gt;&lt;span style=&quot;color: #383a42;&quot;&gt;(&lt;/span&gt;&lt;span style=&quot;color: #e45649;&quot;&gt;ret&lt;/span&gt;&lt;span style=&quot;color: #383a42;&quot;&gt;, &lt;/span&gt;&lt;span style=&quot;color: #e45649;&quot;&gt;io&lt;/span&gt;&lt;span style=&quot;color: #383a42;&quot;&gt;, &lt;/span&gt;&lt;span style=&quot;color: #e45649;&quot;&gt;cb&lt;/span&gt;&lt;span style=&quot;color: #383a42;&quot;&gt;, &lt;/span&gt;&lt;span style=&quot;color: #e45649;&quot;&gt;pe&lt;/span&gt;&lt;span style=&quot;color: #383a42;&quot;&gt;-&amp;gt;&lt;/span&gt;&lt;span style=&quot;color: #e45649;&quot;&gt;events&lt;/span&gt;&lt;span style=&quot;color: #383a42;&quot;&gt;)&lt;/span&gt;&lt;/div&gt;&lt;/div&gt;" style="text;whiteSpace=wrap;html=1;" parent="1" vertex="1">
          <mxGeometry x="423.5" y="1950" width="320" height="30" as="geometry" />
        </mxCell>
        <mxCell id="mUxfSGTV0tOqRw0Oa9tG-104" value="阻塞" style="text;html=1;align=center;verticalAlign=middle;whiteSpace=wrap;rounded=0;" parent="1" vertex="1">
          <mxGeometry x="540" y="1880" width="40" height="30" as="geometry" />
        </mxCell>
        <mxCell id="mUxfSGTV0tOqRw0Oa9tG-112" value="" style="edgeStyle=orthogonalEdgeStyle;rounded=0;orthogonalLoop=1;jettySize=auto;html=1;" parent="1" source="mUxfSGTV0tOqRw0Oa9tG-106" target="mUxfSGTV0tOqRw0Oa9tG-108" edge="1">
          <mxGeometry relative="1" as="geometry" />
        </mxCell>
        <mxCell id="mUxfSGTV0tOqRw0Oa9tG-106" value="&lt;div style=&quot;color: #383a42;background-color: #f5f5f5;font-family: Consolas, &#39;Courier New&#39;, monospace;font-weight: normal;font-size: 14px;line-height: 19px;white-space: pre;&quot;&gt;&lt;div&gt;&lt;span style=&quot;color: #4078f2;&quot;&gt;isp_io_init&lt;/span&gt;&lt;/div&gt;&lt;/div&gt;" style="text;whiteSpace=wrap;html=1;" parent="1" vertex="1">
          <mxGeometry x="920" y="2220" width="100" height="30" as="geometry" />
        </mxCell>
        <mxCell id="mUxfSGTV0tOqRw0Oa9tG-108" value="&lt;div style=&quot;color: rgb(56, 58, 66); background-color: rgb(245, 245, 245); font-family: Consolas, &amp;quot;Courier New&amp;quot;, monospace; font-weight: normal; font-size: 14px; line-height: 19px; white-space: pre;&quot;&gt;&lt;div&gt;&lt;span style=&quot;color: rgb(64, 120, 242);&quot;&gt;io-&amp;gt;cb = stream_callback&lt;/span&gt;&lt;/div&gt;&lt;/div&gt;" style="text;whiteSpace=wrap;html=1;" parent="1" vertex="1">
          <mxGeometry x="1055" y="2220" width="190" height="30" as="geometry" />
        </mxCell>
        <mxCell id="mUxfSGTV0tOqRw0Oa9tG-109" value="&lt;div style=&quot;color: #383a42;background-color: #f5f5f5;font-family: Consolas, &#39;Courier New&#39;, monospace;font-weight: normal;font-size: 14px;line-height: 19px;white-space: pre;&quot;&gt;&lt;div&gt;&lt;span style=&quot;color: #4078f2;&quot;&gt;isp_io_event_add&lt;/span&gt;&lt;/div&gt;&lt;/div&gt;" style="text;whiteSpace=wrap;html=1;" parent="1" vertex="1">
          <mxGeometry x="920" y="2260" width="130" height="30" as="geometry" />
        </mxCell>
        <mxCell id="mUxfSGTV0tOqRw0Oa9tG-113" style="edgeStyle=orthogonalEdgeStyle;rounded=0;orthogonalLoop=1;jettySize=auto;html=1;exitX=0.5;exitY=1;exitDx=0;exitDy=0;entryX=0.5;entryY=0;entryDx=0;entryDy=0;" parent="1" source="mUxfSGTV0tOqRw0Oa9tG-114" target="mUxfSGTV0tOqRw0Oa9tG-122" edge="1">
          <mxGeometry relative="1" as="geometry" />
        </mxCell>
        <mxCell id="mUxfSGTV0tOqRw0Oa9tG-114" value="&lt;div style=&quot;background-color: rgb(245, 245, 245); font-family: Consolas, &amp;quot;Courier New&amp;quot;, monospace; font-weight: normal; font-size: 14px; line-height: 19px; white-space: pre;&quot;&gt;&lt;div style=&quot;&quot;&gt;&lt;span&gt;&lt;font style=&quot;color: rgb(0, 204, 0);&quot;&gt;epoll_wait&lt;/font&gt;&lt;/span&gt;&lt;/div&gt;&lt;/div&gt;" style="text;whiteSpace=wrap;html=1;" parent="1" vertex="1">
          <mxGeometry x="687.5" y="2480" width="80" height="30" as="geometry" />
        </mxCell>
        <mxCell id="mUxfSGTV0tOqRw0Oa9tG-118" value="" style="curved=1;endArrow=classic;html=1;rounded=0;entryX=1;entryY=0.5;entryDx=0;entryDy=0;" parent="1" target="mUxfSGTV0tOqRw0Oa9tG-114" edge="1">
          <mxGeometry width="50" height="50" relative="1" as="geometry">
            <mxPoint x="1044" y="2470" as="sourcePoint" />
            <mxPoint x="764" y="2530" as="targetPoint" />
            <Array as="points">
              <mxPoint x="984" y="2490" />
              <mxPoint x="904" y="2480" />
            </Array>
          </mxGeometry>
        </mxCell>
        <mxCell id="mUxfSGTV0tOqRw0Oa9tG-119" value="唤醒" style="text;html=1;align=center;verticalAlign=middle;whiteSpace=wrap;rounded=0;" parent="1" vertex="1">
          <mxGeometry x="874" y="2460" width="60" height="30" as="geometry" />
        </mxCell>
        <mxCell id="mUxfSGTV0tOqRw0Oa9tG-120" value="&lt;h2&gt;主线程&lt;/h2&gt;" style="text;html=1;align=center;verticalAlign=middle;whiteSpace=wrap;rounded=0;" parent="1" vertex="1">
          <mxGeometry x="591.75" y="2430" width="60" height="30" as="geometry" />
        </mxCell>
        <mxCell id="mUxfSGTV0tOqRw0Oa9tG-121" value="&lt;h2&gt;&lt;ul style=&quot;color: rgb(56, 58, 66); font-family: &amp;quot;Segoe WPC&amp;quot;, &amp;quot;Segoe UI&amp;quot;, sans-serif; font-size: 13px; font-weight: 400; text-align: start; background-color: rgb(221, 221, 221); margin: 0px 0px 0px 16px; padding: 0px;&quot; class=&quot;nested&quot;&gt;&lt;li style=&quot;margin-bottom: 2px !important; margin-top: 2px !important; margin-left: 24px; padding-top: 2px; padding-bottom: 2px; list-style-type: disc;&quot; class=&quot;nested&quot; data-indent=&quot;3&quot;&gt;当摄像头硬件捕获到新的图像帧时，会触发硬件中断&lt;/li&gt;&lt;/ul&gt;&lt;ul style=&quot;color: rgb(56, 58, 66); font-family: &amp;quot;Segoe WPC&amp;quot;, &amp;quot;Segoe UI&amp;quot;, sans-serif; font-size: 13px; font-weight: 400; text-align: start; background-color: rgb(221, 221, 221); margin: 0px 0px 0px 16px; padding: 0px;&quot; class=&quot;nested&quot;&gt;&lt;li style=&quot;margin-bottom: 2px !important; margin-top: 2px !important; margin-left: 24px; padding-top: 2px; padding-bottom: 2px; list-style-type: disc;&quot; class=&quot;nested&quot; data-indent=&quot;3&quot;&gt;V4L2驱动程序处理这个中断，将图像数据放入内核缓冲区&lt;/li&gt;&lt;/ul&gt;&lt;ul style=&quot;color: rgb(56, 58, 66); font-family: &amp;quot;Segoe WPC&amp;quot;, &amp;quot;Segoe UI&amp;quot;, sans-serif; font-size: 13px; font-weight: 400; text-align: start; background-color: rgb(221, 221, 221); margin: 0px 0px 0px 16px; padding: 0px;&quot; class=&quot;nested&quot;&gt;&lt;li style=&quot;margin-bottom: 2px !important; margin-top: 2px !important; margin-left: 24px; padding-top: 2px; padding-bottom: 2px; list-style-type: disc;&quot; class=&quot;nested&quot; data-indent=&quot;3&quot;&gt;驱动程序将相应的文件描述符标记为&quot;可读&quot;状态&lt;/li&gt;&lt;/ul&gt;&lt;ul style=&quot;color: rgb(56, 58, 66); font-family: &amp;quot;Segoe WPC&amp;quot;, &amp;quot;Segoe UI&amp;quot;, sans-serif; font-size: 13px; font-weight: 400; text-align: start; background-color: rgb(221, 221, 221); margin: 0px 0px 0px 16px; padding: 0px;&quot; class=&quot;nested&quot;&gt;&lt;li style=&quot;margin-bottom: 2px !important; margin-top: 2px !important; margin-left: 24px; padding-top: 2px; padding-bottom: 2px; list-style-type: disc;&quot; class=&quot;nested&quot; data-indent=&quot;3&quot;&gt;内核通知epoll子系统该文件描述符状态已变化&lt;/li&gt;&lt;/ul&gt;&lt;/h2&gt;" style="text;html=1;align=center;verticalAlign=middle;whiteSpace=wrap;rounded=0;" parent="1" vertex="1">
          <mxGeometry x="1050" y="2420" width="375" height="100" as="geometry" />
        </mxCell>
        <mxCell id="mUxfSGTV0tOqRw0Oa9tG-122" value="&lt;div style=&quot;color: #383a42;background-color: #f5f5f5;font-family: Consolas, &#39;Courier New&#39;, monospace;font-weight: normal;font-size: 14px;line-height: 19px;white-space: pre;&quot;&gt;&lt;div&gt;&lt;span style=&quot;color: #aca600;&quot;&gt;isp_call_op_ret&lt;/span&gt;&lt;span style=&quot;color: #383a42;&quot;&gt;(&lt;/span&gt;&lt;span style=&quot;color: #e45649;&quot;&gt;ret&lt;/span&gt;&lt;span style=&quot;color: #383a42;&quot;&gt;, &lt;/span&gt;&lt;span style=&quot;color: #e45649;&quot;&gt;io&lt;/span&gt;&lt;span style=&quot;color: #383a42;&quot;&gt;, &lt;/span&gt;&lt;span style=&quot;color: #e45649;&quot;&gt;cb&lt;/span&gt;&lt;span style=&quot;color: #383a42;&quot;&gt;, &lt;/span&gt;&lt;span style=&quot;color: #e45649;&quot;&gt;pe&lt;/span&gt;&lt;span style=&quot;color: #383a42;&quot;&gt;-&amp;gt;&lt;/span&gt;&lt;span style=&quot;color: #e45649;&quot;&gt;events&lt;/span&gt;&lt;span style=&quot;color: #383a42;&quot;&gt;)&lt;/span&gt;&lt;/div&gt;&lt;/div&gt;" style="text;whiteSpace=wrap;html=1;" parent="1" vertex="1">
          <mxGeometry x="567.5" y="2530" width="320" height="30" as="geometry" />
        </mxCell>
        <mxCell id="mUxfSGTV0tOqRw0Oa9tG-123" value="阻塞" style="text;html=1;align=center;verticalAlign=middle;whiteSpace=wrap;rounded=0;" parent="1" vertex="1">
          <mxGeometry x="684" y="2460" width="40" height="30" as="geometry" />
        </mxCell>
        <mxCell id="mUxfSGTV0tOqRw0Oa9tG-124" value="" style="curved=1;endArrow=classic;html=1;rounded=0;exitX=1;exitY=0.5;exitDx=0;exitDy=0;entryX=0.5;entryY=0;entryDx=0;entryDy=0;" parent="1" source="mUxfSGTV0tOqRw0Oa9tG-85" target="mUxfSGTV0tOqRw0Oa9tG-85" edge="1">
          <mxGeometry width="50" height="50" relative="1" as="geometry">
            <mxPoint x="1910" y="1840" as="sourcePoint" />
            <mxPoint x="1960" y="1790" as="targetPoint" />
            <Array as="points">
              <mxPoint x="1900" y="1816" />
              <mxPoint x="1900" y="1780" />
              <mxPoint x="1870" y="1760" />
              <mxPoint x="1820" y="1770" />
            </Array>
          </mxGeometry>
        </mxCell>
        <mxCell id="mUxfSGTV0tOqRw0Oa9tG-125" value="while(1)" style="text;html=1;align=center;verticalAlign=middle;whiteSpace=wrap;rounded=0;" parent="1" vertex="1">
          <mxGeometry x="1880" y="1730" width="60" height="30" as="geometry" />
        </mxCell>
        <mxCell id="mUxfSGTV0tOqRw0Oa9tG-138" style="edgeStyle=orthogonalEdgeStyle;rounded=0;orthogonalLoop=1;jettySize=auto;html=1;exitX=0.5;exitY=1;exitDx=0;exitDy=0;entryX=0.5;entryY=0;entryDx=0;entryDy=0;" parent="1" source="mUxfSGTV0tOqRw0Oa9tG-126" target="mUxfSGTV0tOqRw0Oa9tG-137" edge="1">
          <mxGeometry relative="1" as="geometry" />
        </mxCell>
        <mxCell id="mUxfSGTV0tOqRw0Oa9tG-126" value="&lt;div style=&quot;color: #383a42;background-color: #f5f5f5;font-family: Consolas, &#39;Courier New&#39;, monospace;font-weight: normal;font-size: 14px;line-height: 19px;white-space: pre;&quot;&gt;&lt;div&gt;&lt;span style=&quot;color: #4078f2;&quot;&gt;isp_poll_add_work&lt;/span&gt;&lt;/div&gt;&lt;/div&gt;" style="text;whiteSpace=wrap;html=1;" parent="1" vertex="1">
          <mxGeometry x="2085" y="1800" width="140" height="30" as="geometry" />
        </mxCell>
        <mxCell id="mUxfSGTV0tOqRw0Oa9tG-129" value="" style="curved=1;endArrow=classic;html=1;rounded=0;exitX=0;exitY=0.5;exitDx=0;exitDy=0;entryX=0.75;entryY=0;entryDx=0;entryDy=0;" parent="1" source="mUxfSGTV0tOqRw0Oa9tG-130" target="mUxfSGTV0tOqRw0Oa9tG-132" edge="1">
          <mxGeometry width="50" height="50" relative="1" as="geometry">
            <mxPoint x="1990" y="1810" as="sourcePoint" />
            <mxPoint x="1900" y="1810" as="targetPoint" />
            <Array as="points">
              <mxPoint x="1980" y="1880" />
              <mxPoint x="1930" y="1850" />
            </Array>
          </mxGeometry>
        </mxCell>
        <mxCell id="mUxfSGTV0tOqRw0Oa9tG-130" value="&lt;div style=&quot;color: #383a42;background-color: #f5f5f5;font-family: Consolas, &#39;Courier New&#39;, monospace;font-weight: normal;font-size: 14px;line-height: 19px;white-space: pre;&quot;&gt;&lt;div&gt;&lt;span style=&quot;color: #0184bc;&quot;&gt;pthread_cond_signal&lt;/span&gt;&lt;span style=&quot;color: #383a42;&quot;&gt;(&lt;/span&gt;&lt;span style=&quot;color: #383a42;&quot;&gt;&amp;amp;&lt;/span&gt;&lt;span style=&quot;color: #e45649;&quot;&gt;wq&lt;/span&gt;&lt;span style=&quot;color: #383a42;&quot;&gt;-&amp;gt;&lt;/span&gt;&lt;span style=&quot;color: #e45649;&quot;&gt;cond&lt;/span&gt;&lt;span style=&quot;color: #383a42;&quot;&gt;);&lt;/span&gt;&lt;/div&gt;&lt;/div&gt;" style="text;whiteSpace=wrap;html=1;" parent="1" vertex="1">
          <mxGeometry x="2030" y="1916" width="250" height="34" as="geometry" />
        </mxCell>
        <mxCell id="mUxfSGTV0tOqRw0Oa9tG-134" style="edgeStyle=orthogonalEdgeStyle;rounded=0;orthogonalLoop=1;jettySize=auto;html=1;exitX=0.5;exitY=1;exitDx=0;exitDy=0;entryX=0.5;entryY=0;entryDx=0;entryDy=0;" parent="1" source="mUxfSGTV0tOqRw0Oa9tG-132" target="mUxfSGTV0tOqRw0Oa9tG-72" edge="1">
          <mxGeometry relative="1" as="geometry" />
        </mxCell>
        <mxCell id="mUxfSGTV0tOqRw0Oa9tG-132" value="&lt;div style=&quot;color: #383a42;background-color: #f5f5f5;font-family: Consolas, &#39;Courier New&#39;, monospace;font-weight: normal;font-size: 14px;line-height: 19px;white-space: pre;&quot;&gt;&lt;div&gt;&lt;span style=&quot;color: #0184bc;&quot;&gt;pthread_cond_wait&lt;/span&gt;&lt;span style=&quot;color: #383a42;&quot;&gt;(&lt;/span&gt;&lt;span style=&quot;color: #383a42;&quot;&gt;&amp;amp;&lt;/span&gt;&lt;span style=&quot;color: #e45649;&quot;&gt;wq&lt;/span&gt;&lt;span style=&quot;color: #383a42;&quot;&gt;-&amp;gt;&lt;/span&gt;&lt;span style=&quot;color: #e45649;&quot;&gt;cond&lt;/span&gt;&lt;span style=&quot;color: #383a42;&quot;&gt;, &lt;/span&gt;&lt;span style=&quot;color: #383a42;&quot;&gt;&amp;amp;&lt;/span&gt;&lt;span style=&quot;color: #e45649;&quot;&gt;wq&lt;/span&gt;&lt;span style=&quot;color: #383a42;&quot;&gt;-&amp;gt;&lt;/span&gt;&lt;span style=&quot;color: #e45649;&quot;&gt;lock&lt;/span&gt;&lt;span style=&quot;color: #383a42;&quot;&gt;);&lt;/span&gt;&lt;/div&gt;&lt;/div&gt;" style="text;whiteSpace=wrap;html=1;" parent="1" vertex="1">
          <mxGeometry x="1650" y="1870" width="320" height="37.5" as="geometry" />
        </mxCell>
        <mxCell id="mUxfSGTV0tOqRw0Oa9tG-135" value="如果wq-&amp;gt;queue为空, 阻塞等待条件变量" style="text;html=1;align=center;verticalAlign=middle;whiteSpace=wrap;rounded=0;" parent="1" vertex="1">
          <mxGeometry x="1630" y="1845" width="120" height="30" as="geometry" />
        </mxCell>
        <mxCell id="mUxfSGTV0tOqRw0Oa9tG-139" style="edgeStyle=orthogonalEdgeStyle;rounded=0;orthogonalLoop=1;jettySize=auto;html=1;exitX=0.5;exitY=1;exitDx=0;exitDy=0;entryX=0.5;entryY=0;entryDx=0;entryDy=0;" parent="1" source="mUxfSGTV0tOqRw0Oa9tG-137" target="mUxfSGTV0tOqRw0Oa9tG-130" edge="1">
          <mxGeometry relative="1" as="geometry" />
        </mxCell>
        <mxCell id="mUxfSGTV0tOqRw0Oa9tG-137" value="&lt;div style=&quot;color: #383a42;background-color: #f5f5f5;font-family: Consolas, &#39;Courier New&#39;, monospace;font-weight: normal;font-size: 14px;line-height: 19px;white-space: pre;&quot;&gt;&lt;div&gt;&lt;span style=&quot;color: #aca600;&quot;&gt;list_insert_tail&lt;/span&gt;&lt;span style=&quot;color: #383a42;&quot;&gt;(&lt;/span&gt;&lt;span style=&quot;color: #383a42;&quot;&gt;&amp;amp;&lt;/span&gt;&lt;span style=&quot;color: #e45649;&quot;&gt;wq&lt;/span&gt;&lt;span style=&quot;color: #383a42;&quot;&gt;-&amp;gt;&lt;/span&gt;&lt;span style=&quot;color: #e45649;&quot;&gt;queue&lt;/span&gt;&lt;span style=&quot;color: #383a42;&quot;&gt;, &lt;/span&gt;&lt;span style=&quot;color: #383a42;&quot;&gt;&amp;amp;&lt;/span&gt;&lt;span style=&quot;color: #e45649;&quot;&gt;handle&lt;/span&gt;&lt;span style=&quot;color: #383a42;&quot;&gt;-&amp;gt;&lt;/span&gt;&lt;span style=&quot;color: #e45649;&quot;&gt;list&lt;/span&gt;&lt;span style=&quot;color: #383a42;&quot;&gt;);&lt;/span&gt;&lt;/div&gt;&lt;/div&gt;" style="text;whiteSpace=wrap;html=1;" parent="1" vertex="1">
          <mxGeometry x="1985" y="1860" width="340" height="30" as="geometry" />
        </mxCell>
        <mxCell id="mUxfSGTV0tOqRw0Oa9tG-140" value="加入工作队列" style="text;html=1;align=center;verticalAlign=middle;whiteSpace=wrap;rounded=0;" parent="1" vertex="1">
          <mxGeometry x="1990" y="1840" width="120" height="30" as="geometry" />
        </mxCell>
        <mxCell id="mUxfSGTV0tOqRw0Oa9tG-141" value="&lt;h1&gt;Trigger机制&lt;/h1&gt;" style="text;html=1;align=center;verticalAlign=middle;whiteSpace=wrap;rounded=0;" parent="1" vertex="1">
          <mxGeometry x="30" y="1540" width="150" height="30" as="geometry" />
        </mxCell>
        <mxCell id="mUxfSGTV0tOqRw0Oa9tG-143" value="&lt;h1&gt;Work queue机制&lt;/h1&gt;" style="text;html=1;align=center;verticalAlign=middle;whiteSpace=wrap;rounded=0;" parent="1" vertex="1">
          <mxGeometry x="1040" y="1550" width="190" height="30" as="geometry" />
        </mxCell>
        <mxCell id="GMMovzZSmzLbaU7FKOHR-1" value="" style="curved=1;endArrow=classic;html=1;rounded=0;exitX=0.75;exitY=0;exitDx=0;exitDy=0;" edge="1" parent="1" source="mUxfSGTV0tOqRw0Oa9tG-122">
          <mxGeometry width="50" height="50" relative="1" as="geometry">
            <mxPoint x="562.94" y="2496" as="sourcePoint" />
            <mxPoint x="1130" y="2260" as="targetPoint" />
            <Array as="points">
              <mxPoint x="820" y="2410" />
            </Array>
          </mxGeometry>
        </mxCell>
        <mxCell id="GMMovzZSmzLbaU7FKOHR-2" value="&lt;div style=&quot;color: #383a42;background-color: #f5f5f5;font-family: Consolas, &#39;Courier New&#39;, monospace;font-weight: normal;font-size: 14px;line-height: 19px;white-space: pre;&quot;&gt;&lt;div&gt;&lt;span style=&quot;color: #4078f2;&quot;&gt;stream_service_client&lt;/span&gt;&lt;/div&gt;&lt;/div&gt;" style="text;whiteSpace=wrap;html=1;" vertex="1" parent="1">
          <mxGeometry x="727" y="2150" width="176" height="40" as="geometry" />
        </mxCell>
        <mxCell id="GMMovzZSmzLbaU7FKOHR-4" value="" style="curved=1;endArrow=classic;html=1;rounded=0;exitX=0.5;exitY=0;exitDx=0;exitDy=0;entryX=0.5;entryY=0;entryDx=0;entryDy=0;" edge="1" parent="1" source="mUxfSGTV0tOqRw0Oa9tG-108" target="GMMovzZSmzLbaU7FKOHR-2">
          <mxGeometry width="50" height="50" relative="1" as="geometry">
            <mxPoint x="1060" y="2180" as="sourcePoint" />
            <mxPoint x="1110" y="2130" as="targetPoint" />
            <Array as="points">
              <mxPoint x="1110" y="2180" />
              <mxPoint x="1040" y="2140" />
            </Array>
          </mxGeometry>
        </mxCell>
      </root>
    </mxGraphModel>
  </diagram>
</mxfile>
